<?xml version="1.0" encoding="utf-8"?>
<!-- Generator: Adobe Illustrator 24.3.0, SVG Export Plug-In . SVG Version: 6.00 Build 0)  -->
<svg version="1.1" id="Layer_1" xmlns="http://www.w3.org/2000/svg" xmlns:xlink="http://www.w3.org/1999/xlink" x="0px" y="0px"
	 viewBox="0 0 500 500" style="enable-background:new 0 0 500 500;" xml:space="preserve">
<style type="text/css">
	.st0{fill:#1B1B1B;}
	.st1{fill:#FFFFFF;}
</style>
<rect class="st0" width="500" height="500"/>
<path class="st1" d="M0.02,356.82c2.41-3.26,1.87-7.3,2.79-10.95c11.94-47.29,53.99-78.73,102.68-76.54
	c6.5,0.29,12.85,1.64,19.13,3.2c2.27,0.56,3.16,0.09,3.96-1.97c1.69-4.35,3.61-8.61,5.36-12.71c-0.62-1.53-1.77-1.04-2.62-1.21
	c-7.56-1.53-13.07-7.69-13.51-15.14c-0.46-7.84,4.14-14.81,11.81-16.86c2.88-0.77,3.33-1.63,3.12-4.51
	c-0.72-10.29,3.52-18.65,11.39-25.04c35.35-28.73,70.64-57.54,106.23-85.98c22.41-17.91,54.99-8.45,63.61,18.07
	c2.75,8.45,2.54,17.02-0.61,25.28c-2.81,7.36,0.2,14.34,0.69,21.47c0.19,2.78,2.57,0.78,3.75,0.35
	c15.62-5.75,31.22-11.58,46.8-17.44c3.38-1.27,6.83-2.19,10.42-2c9.47,0.5,17.44,7.36,19.26,16.39c2,9.94-2.23,19.4-11.64,23.09
	c-5.54,2.17-5.97,4.8-4.85,9.95c4.44,20.4,8.49,40.89,12.5,61.38c0.59,2.99,1.57,3.85,4.69,3.78c49.13-1.13,90.6,31.26,101.25,78.91
	c12.43,55.58-26.36,111.39-83.12,119.61c-53.17,7.7-102.36-26.94-112.74-79.66c-3.65-18.51-2.28-36.82,4.85-54.4
	c1.72-4.24,1.12-6.26-2.89-8.18c-4.07-1.95-7.93-4.41-11.66-6.96c-2.39-1.63-3.38-1.02-4.75,1.27c-9,14.99-18.04,29.95-27.28,44.79
	c-10.04,16.12-29.61,19.73-44.03,8.32c-10.13-8.01-14.03-23.07-7.93-34.64c5.96-11.29,12.97-22.02,19.57-32.97
	c4.26-7.07,8.54-14.13,12.95-21.11c1.28-2.02,1.12-2.77-1.24-3.72c-18.9-7.57-37.66-15.51-56.65-22.87
	c-5.78-2.24-12.22-0.52-18.35-0.76c-1.35-0.05-1.83,1.09-2.29,2.17c-3.02,7.14-5.92,14.35-9.18,21.38
	c-1.28,2.76,0.44,3.41,2.05,4.44c12.19,7.8,22.11,17.83,30.19,29.84c26.13,38.84,19.84,94.24-14.48,126.31
	c-40.23,37.59-99.26,37.44-139.08-0.71C14.89,425.87,5.45,407.84,1.7,386.92c-0.35-1.92,0.15-4.23-1.68-5.76
	C0.02,373.04,0.02,364.93,0.02,356.82z M399.68,444.14c2.82-0.28,6.91-0.41,10.88-1.12c42.09-7.57,68.68-45.65,61.44-87.86
	c-5.81-33.86-37.62-60.65-72.08-60.78c-2.86-0.01-3.85,0.18-3.1,3.64c3.26,15.02,6.17,30.12,9.07,45.22
	c0.42,2.17,1.44,3.23,3.34,4.24c10.92,5.83,15.82,16.98,12.59,28.16c-3.19,11.03-13.34,18.58-24.22,18.01
	c-11.98-0.63-21.22-8.85-23.17-21c-0.46-2.89-1.75-4.48-4.14-5.89c-12.53-7.43-25.05-14.86-37.39-22.6
	c-3.52-2.21-4.5-1.51-5.74,2.17C311.22,393.76,347.98,444.27,399.68,444.14z M100.23,444.14c34.63-0.14,65.11-24.73,72.62-58.35
	c0.77-3.46-0.03-4.09-3.31-4.06c-14.59,0.15-29.18,0.16-43.77-0.01c-3.34-0.04-5.6,0.76-7.8,3.5c-4.86,6.07-11.7,8.68-19.32,8.28
	c-11.81-0.62-21.49-9.79-22.72-20.91c-1.4-12.69,5.34-23.03,17.52-26.67c2.11-0.63,3.62-1.44,4.56-3.7
	c5.89-14.17,11.82-28.33,18.06-42.34c1.51-3.39,0.05-3.7-2.47-4.19c-9.51-1.86-19.05-1.86-28.49,0.07
	c-37.62,7.7-63.57,43.04-59.66,81.01C29.36,414.82,62.1,444.3,100.23,444.14z M241.25,218.81c3.53,1.45,6.31,2.58,9.08,3.72
	c15.53,6.42,31.33,12.26,46.5,19.44c14.73,6.97,19.89,23.77,12.83,38.4c-2.03,4.21-4.42,8.29-7.06,12.14
	c-1.8,2.63-1.16,3.71,1.38,5.07c4.27,2.3,8.49,4.76,12.44,7.56c2.92,2.07,4.44,1.38,6.6-1.17c10.76-12.75,24.03-22.09,39.67-27.9
	c3.05-1.13,3.81-2.51,3.16-5.63c-4.21-20.12-8.38-40.24-12.23-60.43c-0.71-3.72-1.72-3.94-4.89-2.72
	c-14.01,5.42-28.1,10.66-42.18,15.91c-16.31,6.08-29.38-2.12-31.07-19.4c-0.35-3.6-0.93-7.18-1.51-11.49
	C262.77,201.37,252.27,209.89,241.25,218.81z M140.49,306.41c-6.79,15.89-13.29,31.2-19.88,46.46c-1.23,2.85-0.34,3.85,2.56,3.84
	c15.88-0.03,31.76-0.05,47.64,0.03c2.3,0.01,2.78-0.75,2.31-2.83C168.6,333.92,157.94,318.15,140.49,306.41z M371.64,299.64
	c-11.8,4.53-21.33,11.44-29.55,20.89c12.62,7.61,24.97,15.06,38.32,23.12C377.38,328.43,374.57,314.33,371.64,299.64z"/>
<path class="st1" d="M347.57,121.32c-24.83-0.43-44.36-20.35-43.91-44.78c0.45-24.71,20.33-44.17,44.19-44.13
	c25.34,0.05,44.61,20.87,44.73,44.15C392.71,101.62,371.78,122.06,347.57,121.32z"/>
</svg>
