<?xml version="1.0" encoding="utf-8"?>
<!-- Generator: Adobe Illustrator 24.3.0, SVG Export Plug-In . SVG Version: 6.00 Build 0)  -->
<svg version="1.1" id="Layer_1" xmlns="http://www.w3.org/2000/svg" xmlns:xlink="http://www.w3.org/1999/xlink" x="0px" y="0px"
	 viewBox="0 0 500 500" style="enable-background:new 0 0 500 500;" xml:space="preserve">
<style type="text/css">
	.st0{fill:#FFFFFF;}
	.st1{fill:#FDFDFD;}
</style>
<path class="st0" d="M-0.04,366.48c0-79,0-158,0-236.99c0.7-0.81,0.33-1.79,0.34-2.68c0.15-13.08,0.45-26.16,0.31-39.24
	c-0.1-8.87,3.1-16.37,8.24-23.25c7.77-10.42,18.06-17.85,29.27-24.08c26.08-14.5,54.48-22.17,83.48-27.99
	c18.48-3.71,37.15-6.2,55.91-7.97c15.21-1.43,30.43-2.99,45.72-3.23c20.98-0.33,41.96,0.16,62.93,0.67
	c10.53,0.25,21.04,0.92,31.52,2c20.94,2.16,41.79,4.91,62.43,9.08c22.37,4.52,44.39,10.27,65.42,19.34
	c16.29,7.02,31.26,15.97,42.99,29.6c4.8,5.57,8.91,11.39,9.56,19.2c0.98,11.7,1.17,23.42,1.22,35.13
	c0.4,100.99-0.17,201.99-0.3,302.98c0,0.84,0.04,1.66-0.37,2.48c-1.84,3.72-3.43,7.55-5.61,11.1
	c-7.19,11.68-17.62,19.84-29.22,26.67c-17.14,10.09-35.7,16.74-54.83,21.8c-40.1,10.61-80.93,16.68-122.37,17.89
	c-42.45,1.24-84.9,1.56-127.14-4.49c-21.76-3.12-43.41-6.6-64.69-12.18c-19.89-5.21-39.26-11.76-57.18-22.03
	c-11.51-6.59-21.97-14.5-29.79-25.41c-4.43-6.18-7.29-12.93-7.13-20.78c0.13-6.11-0.1-12.23-0.23-18.34
	c-0.02-0.75,0.51-1.7-0.48-2.27c0-2.21,0-4.42,0-6.63C0.81,380.07,0.38,373.28-0.04,366.48z M247.95,146.95
	c33.14-0.16,60.32-1.76,87.4-5.15c20.38-2.55,40.58-6.08,60.45-11.32c18.06-4.76,35.64-10.83,52.03-19.95
	c5.87-3.27,11.59-6.8,15.94-12.07c5.89-7.15,5.77-11.68-0.35-18.62c-4.27-4.84-9.54-8.38-15.12-11.51
	c-16.22-9.09-33.6-15.21-51.5-19.9c-40.19-10.53-81.23-14.87-122.62-16.19c-41.31-1.31-82.51,0.42-123.45,6.47
	c-22.59,3.34-44.84,8.16-66.53,15.36c-13.53,4.49-26.76,9.69-38.68,17.7c-4.68,3.14-8.86,6.78-12.04,11.55
	c-2.75,4.11-2.66,7.94-0.04,12.06c2.76,4.33,6.44,7.65,10.63,10.45c13.57,9.07,28.54,15.13,43.99,20.07
	c30.44,9.73,61.8,14.72,93.5,17.83C205.58,146.1,229.66,147.13,247.95,146.95z M467.83,350.27c-0.4,0-0.59-0.06-0.72,0.01
	c-0.75,0.38-1.5,0.77-2.23,1.2c-10.31,6.1-21.17,11.03-32.46,15c-33.3,11.72-67.8,17.82-102.73,21.89
	c-22.71,2.64-45.5,4.02-68.36,4.38c-34.36,0.55-68.57-1.33-102.66-5.77c-23.23-3.03-46.23-7.21-68.84-13.37
	c-19.5-5.32-38.46-12.02-55.91-22.47c-0.69-0.41-1.34-1.05-2.34-0.84c-0.04,0.43-0.09,0.85-0.1,1.27
	c-0.7,20.38-0.28,40.77-0.42,61.15c-0.01,1,0.4,1.75,0.87,2.57c4.44,7.73,11.37,12.7,18.87,17c16,9.16,33.31,14.98,50.99,19.79
	c32.23,8.76,65.17,13,98.41,15.23c28.33,1.9,56.68,2.11,85.05,0.72c33.03-1.62,65.81-5.14,98.12-12.4
	c20.21-4.54,39.97-10.53,58.55-19.88c9.81-4.94,19.32-10.39,25.35-20.17c0.69-1.12,1.07-2.2,1.06-3.53
	c-0.05-9.68-0.01-19.37-0.03-29.05C468.29,372.12,468.41,361.25,467.83,350.27z M31.62,135.26c-0.09,1.06-0.17,1.72-0.19,2.39
	c-0.53,20.12-0.26,40.25-0.34,60.38c0,0.78,0.13,1.47,0.57,2.15c2.82,4.38,6.02,8.39,10.29,11.49c9.96,7.21,21.01,12.33,32.41,16.73
	c23.67,9.13,48.29,14.5,73.29,18.42c24.44,3.83,49.02,6,73.72,6.95c34.5,1.33,68.92,0.3,103.27-3.4c25.08-2.7,49.91-6.74,74.25-13.4
	c18.51-5.06,36.48-11.53,53.01-21.51c6.26-3.78,11.72-8.38,15.49-14.77c0.53-0.9,0.95-1.71,0.94-2.8
	c-0.14-20.04,0.23-40.08-0.34-60.12c-0.07-2.34-0.61-2.49-2.49-1.36c-19.88,11.97-41.65,19.06-63.98,24.65
	c-33.84,8.46-68.27,13.03-103.03,15.43c-38.04,2.62-76.04,2.17-113.99-1.26c-25.53-2.3-50.87-5.95-75.9-11.62
	c-21.35-4.84-42.33-10.8-62.1-20.41C41.57,140.81,36.82,138.05,31.62,135.26z M468.2,242.3c-3.98,2.23-7.25,4.14-10.59,5.91
	c-17.42,9.19-36.03,15.14-55.04,19.92c-40.41,10.18-81.56,14.98-123.11,16.76c-35.27,1.51-70.47,0.35-105.58-3.42
	c-26.17-2.82-52.11-6.97-77.63-13.48c-21.81-5.57-43.08-12.6-62.52-24.3c-0.62-0.37-1.23-0.89-2.13-0.77
	c-0.03,0.43-0.08,0.84-0.1,1.25c-0.71,20.3-0.28,40.6-0.42,60.9c-0.01,1,0.41,1.76,0.83,2.6c2.88,5.83,7.51,10,12.83,13.49
	c14.82,9.72,31.28,15.7,48.07,20.86c23.24,7.14,47.05,11.54,71.16,14.47c22.02,2.68,44.12,4.27,66.28,4.79
	c34.17,0.79,68.26-0.36,102.24-4.38c23.96-2.84,47.61-7.19,70.79-13.92c15.96-4.64,31.61-10.15,46.08-18.51
	c7.12-4.12,13.58-9,17.93-16.22c0.63-1.05,1.06-2.02,1.06-3.28c-0.08-17.33-0.1-34.66-0.14-51.98
	C468.2,249.59,468.2,246.23,468.2,242.3z"/>
<path d="M-0.04,393.49c0.99,0.57,0.46,1.52,0.48,2.27c0.13,6.11,0.36,12.23,0.23,18.34c-0.17,7.85,2.7,14.6,7.13,20.78
	c7.82,10.91,18.28,18.82,29.79,25.41c17.93,10.27,37.3,16.81,57.18,22.03c21.28,5.58,42.94,9.07,64.69,12.18
	c42.24,6.05,84.69,5.72,127.14,4.49c41.44-1.21,82.27-7.28,122.37-17.89c19.13-5.06,37.68-11.7,54.83-21.8
	c11.6-6.83,22.03-14.99,29.22-26.67c2.18-3.54,3.78-7.38,5.61-11.1c0.41-0.82,0.37-1.64,0.37-2.48
	c0.13-100.99,0.7-201.99,0.3-302.98c-0.05-11.71-0.24-23.43-1.22-35.13c-0.65-7.81-4.76-13.62-9.56-19.2
	c-11.73-13.63-26.7-22.58-42.99-29.6c-21.03-9.07-43.05-14.82-65.42-19.34c-20.64-4.17-41.49-6.92-62.43-9.08
	c-10.48-1.08-20.99-1.75-31.52-2c-20.97-0.5-41.95-1-62.93-0.67c-15.29,0.24-30.51,1.8-45.72,3.23
	c-18.76,1.76-37.42,4.26-55.91,7.97c-29,5.82-57.39,13.49-83.48,27.99C26.91,46.48,16.62,53.9,8.85,64.32
	C3.71,71.21,0.51,78.7,0.61,87.57c0.14,13.08-0.16,26.16-0.31,39.24c-0.01,0.89,0.36,1.86-0.34,2.68c0-42.47,0.01-84.93-0.05-127.4
	c0-1.7,0.28-2.11,2.07-2.11c165.28,0.05,330.57,0.05,495.85-0.01c1.93,0,2.17,0.52,2.17,2.26c-0.04,165.19-0.04,330.38,0,495.57
	c0,1.73-0.23,2.26-2.17,2.26c-165.28-0.06-330.57-0.06-495.85-0.01c-1.78,0-2.07-0.39-2.07-2.1
	C-0.03,463.14-0.04,428.32-0.04,393.49z"/>
<path class="st1" d="M-0.04,366.48c0.42,6.8,0.85,13.59,0,20.39C-0.04,380.07-0.04,373.28-0.04,366.48z"/>
<path d="M247.95,146.95c-18.28,0.17-42.37-0.85-66.39-3.21c-31.7-3.11-63.06-8.1-93.5-17.83c-15.45-4.94-30.42-11-43.99-20.07
	c-4.19-2.8-7.87-6.13-10.63-10.45c-2.63-4.11-2.71-7.94,0.04-12.06c3.18-4.76,7.37-8.4,12.04-11.55
	c11.92-8.02,25.15-13.21,38.68-17.7c21.69-7.2,43.94-12.02,66.53-15.36c40.95-6.05,82.14-7.79,123.45-6.47
	c41.38,1.31,82.43,5.66,122.62,16.19c17.91,4.69,35.29,10.81,51.5,19.9c5.57,3.12,10.85,6.67,15.12,11.51
	c6.12,6.94,6.24,11.47,0.35,18.62c-4.34,5.27-10.06,8.8-15.94,12.07c-16.39,9.12-33.97,15.18-52.03,19.95
	c-19.87,5.24-40.07,8.77-60.45,11.32C308.27,145.19,281.08,146.8,247.95,146.95z"/>
<path d="M467.83,350.27c0.57,10.99,0.45,21.86,0.48,32.73c0.02,9.68-0.02,19.37,0.03,29.05c0.01,1.33-0.37,2.41-1.06,3.53
	c-6.03,9.77-15.54,15.23-25.35,20.17c-18.57,9.35-38.34,15.33-58.55,19.88c-32.3,7.26-65.09,10.78-98.12,12.4
	c-28.37,1.39-56.72,1.18-85.05-0.72c-33.24-2.23-66.18-6.47-98.41-15.23c-17.68-4.81-35-10.63-50.99-19.79
	c-7.5-4.3-14.43-9.27-18.87-17c-0.47-0.82-0.87-1.57-0.87-2.57c0.14-20.38-0.28-40.77,0.42-61.15c0.01-0.42,0.07-0.83,0.1-1.27
	c0.99-0.21,1.65,0.43,2.34,0.84c17.45,10.45,36.4,17.15,55.91,22.47c22.61,6.17,45.61,10.34,68.84,13.37
	c34.08,4.45,68.3,6.33,102.66,5.77c22.85-0.37,45.65-1.74,68.36-4.38c34.93-4.07,69.43-10.17,102.73-21.89
	c11.29-3.97,22.15-8.91,32.46-15c0.73-0.43,1.48-0.82,2.23-1.2C467.25,350.21,467.44,350.27,467.83,350.27z"/>
<path d="M31.62,135.26c5.2,2.78,9.95,5.54,14.88,7.94c19.77,9.61,40.76,15.58,62.1,20.41c25.02,5.67,50.37,9.32,75.9,11.62
	c37.96,3.42,75.96,3.88,113.99,1.26c34.76-2.4,69.19-6.97,103.03-15.43c22.33-5.58,44.11-12.68,63.98-24.65
	c1.88-1.13,2.42-0.99,2.49,1.36c0.58,20.04,0.21,40.08,0.34,60.12c0.01,1.09-0.41,1.9-0.94,2.8c-3.77,6.4-9.23,11-15.49,14.77
	c-16.53,9.97-34.5,16.44-53.01,21.51c-24.35,6.66-49.18,10.7-74.25,13.4c-34.34,3.69-68.77,4.72-103.27,3.4
	c-24.69-0.95-49.28-3.13-73.72-6.95c-25-3.92-49.62-9.29-73.29-18.42c-11.4-4.4-22.44-9.51-32.41-16.73
	c-4.28-3.1-7.47-7.11-10.29-11.49c-0.44-0.68-0.58-1.37-0.57-2.15c0.08-20.13-0.19-40.25,0.34-60.38
	C31.45,136.99,31.54,136.33,31.62,135.26z"/>
<path d="M468.2,242.3c0,3.94-0.01,7.3,0,10.66c0.04,17.33,0.07,34.66,0.14,51.98c0.01,1.27-0.43,2.24-1.06,3.28
	c-4.35,7.21-10.8,12.1-17.93,16.22c-14.47,8.37-30.12,13.88-46.08,18.51c-23.18,6.73-46.83,11.08-70.79,13.92
	c-33.98,4.02-68.07,5.17-102.24,4.38c-22.16-0.51-44.26-2.11-66.28-4.79c-24.12-2.93-47.92-7.33-71.16-14.47
	c-16.79-5.16-33.25-11.14-48.07-20.86c-5.32-3.49-9.95-7.65-12.83-13.49c-0.42-0.84-0.84-1.6-0.83-2.6
	c0.14-20.3-0.29-40.6,0.42-60.9c0.01-0.41,0.06-0.82,0.1-1.25c0.9-0.12,1.51,0.4,2.13,0.77c19.44,11.71,40.71,18.74,62.52,24.3
	c25.52,6.52,51.46,10.67,77.63,13.48c35.11,3.78,70.31,4.93,105.58,3.42c41.55-1.78,82.7-6.57,123.11-16.76
	c19.01-4.79,37.62-10.73,55.04-19.92C460.96,246.44,464.22,244.52,468.2,242.3z"/>
</svg>
