<?xml version="1.0" encoding="utf-8"?>
<!-- Generator: Adobe Illustrator 24.3.0, SVG Export Plug-In . SVG Version: 6.00 Build 0)  -->
<svg version="1.1" id="Layer_1" xmlns="http://www.w3.org/2000/svg" xmlns:xlink="http://www.w3.org/1999/xlink" x="0px" y="0px"
	 viewBox="0 0 500 500" style="enable-background:new 0 0 500 500;" xml:space="preserve">
<style type="text/css">
	.st0{fill:#141414;}
	.st1{fill:#FFFFFF;}
</style>
<rect class="st0" width="500" height="500"/>
<g>
	<path class="st1" d="M499.8,120.1c0.1,0.4,0.2,0.6,0.2,0.9c0,0.6,0,1.2,0,1.9c0,86.4,0,172.9,0,259.3c0,4.7-0.4,9.3-1.7,13.8
		c-2.7,9.8-8,17.9-16.1,24c-6.7,5-14.3,7.6-22.7,7.7c-0.6,0-1.3,0-1.9,0c-138.4,0-276.8,0-415.2,0c-3.9,0-7.8-0.3-11.7-1.3
		c-8.9-2.5-16.1-7.6-21.6-15c-4.8-6.4-7.7-13.6-8.7-21.6c-0.3-2.5-0.4-5-0.4-7.5c0-87.3,0-174.7,0-262c0-0.8,0-1.6,0-2.4
		c0-0.5,0.4-0.6,0.8-0.4c0.7,0.4,1.4,0.8,2.1,1.2c48.2,28.7,96.4,57.5,144.6,86.2c33.3,19.9,66.7,39.7,100,59.6c3,1.8,1.8,1.8,4.9,0
		c81.6-47.6,163.1-95.3,244.7-142.9C498,121,498.7,120.3,499.8,120.1z"/>
	<path class="st1" d="M492.9,92c-0.6,0.7-1.6,1.1-2.4,1.6c-27,15.8-54.1,31.6-81.1,47.4c-52.3,30.6-104.6,61.1-156.9,91.7
		c-0.2,0.1-0.5,0.2-0.7,0.4c-1.2,1-2.3,0.8-3.6,0c-15.4-9.2-30.8-18.4-46.2-27.6C138.4,167.5,74.8,129.6,11.2,91.7
		c-3.5-2.1-3.5-1.3-0.8-4.6c5.8-7.1,13-11.8,22-13.9c2.2-0.5,4.4-0.8,6.6-0.8c0.9,0,1.8,0,2.7,0c138.9,0,277.9,0,416.8,0
		c5.4,0,10.7,0.8,15.7,3c7.9,3.4,14,8.8,18.6,16C492.8,91.5,492.8,91.7,492.9,92z"/>
</g>
</svg>
