<?xml version="1.0" encoding="utf-8"?>
<!-- Generator: Adobe Illustrator 24.3.0, SVG Export Plug-In . SVG Version: 6.00 Build 0)  -->
<svg version="1.1" id="Layer_1" xmlns="http://www.w3.org/2000/svg" xmlns:xlink="http://www.w3.org/1999/xlink" x="0px" y="0px"
	 viewBox="0 0 500 500" style="enable-background:new 0 0 500 500;" xml:space="preserve">
<style type="text/css">
	.st0{fill:#141414;}
	.st1{fill:#FF0000;}
</style>
<rect class="st0" width="500" height="500"/>
<path class="st1" d="M288.3,410.9c0-27.3,0.1-54.6-0.1-82c0-4.4,1.3-5.2,5.4-5.2c16.3,0.2,32.6,0,48.9,0.2c3.3,0,4.8-0.8,5.3-4.2
	c3.2-21.4,6.5-42.8,9.8-64.2c0.5-3.4-0.5-4.3-4-4.3c-20.3,0.1-40.6,0-60.9,0.2c-3.6,0-4.6-0.9-4.5-4.5c0.2-13.9,0-27.8,0.1-41.7
	c0.1-23.6,15.1-38.9,38.9-39.2c10.4-0.2,20.8-0.1,31.2,0c2.9,0,3.8-0.8,3.8-3.7c-0.1-18.1-0.1-36.1,0-54.2c0-3-1.2-4-3.8-4.3
	c-23.6-2.9-47.3-6.2-71.1-2.9c-38.1,5.2-64,28-72.7,66.6c-2.5,10.9-3.1,22.1-3,33.3c0.1,15.3-0.1,30.7,0.1,46
	c0.1,3.9-1.2,4.7-4.8,4.6c-18.2-0.2-36.4,0-54.7-0.2c-3.8,0-4.9,1-4.8,4.8c0.2,21.1,0.2,42.2,0,63.3c0,3.6,0.9,4.7,4.6,4.6
	c18.4-0.2,36.8,0,55.2-0.2c3.5,0,4.6,0.7,4.6,4.4c-0.1,55.5-0.1,110.9-0.1,166.4c0,2.8,0,4.1-3.8,3.5
	C105.8,481.1,22.8,400.8,4.6,298.3c-16-89.6,9.7-166.9,75.5-229.8C119,31.3,166.2,10.2,219.7,3.6C323.3-9,423.9,43.9,471.8,136.4
	c63.7,122.9,16,273.2-107,337.2c-22.8,11.9-46.9,19.9-72.3,24.3c-3.6,0.6-4.3-0.2-4.3-3.6C288.3,466.5,288.3,438.7,288.3,410.9z"/>
</svg>
