<?xml version="1.0" encoding="utf-8"?>
<!-- Generator: Adobe Illustrator 24.3.0, SVG Export Plug-In . SVG Version: 6.00 Build 0)  -->
<svg version="1.1" id="Layer_1" xmlns="http://www.w3.org/2000/svg" xmlns:xlink="http://www.w3.org/1999/xlink" x="0px" y="0px"
	 viewBox="0 0 500 500" style="enable-background:new 0 0 500 500;" xml:space="preserve">
<style type="text/css">
	.st0{fill:#141414;}
	.st1{fill:#FFFFFF;}
</style>
<rect class="st0" width="500" height="500"/>
<path class="st1" d="M288.29,410.91c0-27.33,0.11-54.65-0.11-81.98c-0.04-4.37,1.27-5.25,5.37-5.19c16.3,0.23,32.62,0,48.92,0.18
	c3.32,0.04,4.82-0.76,5.33-4.2c3.16-21.42,6.46-42.82,9.79-64.22c0.53-3.38-0.54-4.32-3.97-4.3c-20.3,0.15-40.61-0.02-60.91,0.16
	c-3.61,0.03-4.56-0.95-4.5-4.52c0.21-13.9,0.04-27.8,0.1-41.71c0.09-23.65,15.15-38.87,38.93-39.24
	c10.39-0.16,20.79-0.12,31.18,0.03c2.89,0.04,3.84-0.76,3.82-3.74c-0.13-18.06-0.14-36.12,0.01-54.17c0.03-2.98-1.19-3.97-3.76-4.28
	c-23.62-2.86-47.29-6.18-71.07-2.92c-38.06,5.22-64,28.02-72.66,66.62c-2.46,10.95-3.09,22.07-2.98,33.27
	c0.15,15.34-0.11,30.68,0.14,46.02c0.06,3.94-1.22,4.66-4.83,4.63c-18.23-0.17-36.45,0.03-54.68-0.17c-3.79-0.04-4.85,0.99-4.81,4.8
	c0.18,21.09,0.17,42.19,0.01,63.28c-0.03,3.56,0.94,4.67,4.56,4.63c18.39-0.17,36.77,0.01,55.16-0.16c3.49-0.03,4.58,0.72,4.57,4.43
	c-0.13,55.45-0.1,110.9-0.06,166.36c0,2.78,0.03,4.14-3.77,3.51C105.78,481.13,22.83,400.75,4.59,298.31
	c-15.96-89.65,9.71-166.92,75.53-229.83c38.89-37.16,86.05-58.28,139.59-64.83C323.32-9.01,423.92,43.94,471.8,136.41
	c63.66,122.94,15.98,273.19-107.03,337.19c-22.82,11.87-46.94,19.88-72.29,24.32c-3.62,0.63-4.28-0.19-4.26-3.6
	C288.34,466.52,288.29,438.71,288.29,410.91z"/>
</svg>
