<?xml version="1.0" encoding="utf-8"?>
<!-- Generator: Adobe Illustrator 24.3.0, SVG Export Plug-In . SVG Version: 6.00 Build 0)  -->
<svg version="1.1" id="Layer_1" xmlns="http://www.w3.org/2000/svg" xmlns:xlink="http://www.w3.org/1999/xlink" x="0px" y="0px"
	 viewBox="0 0 500 500" style="enable-background:new 0 0 500 500;" xml:space="preserve">
<style type="text/css">
	.st0{fill:#1B1B1B;}
	.st1{fill:#FFFFFF;}
</style>
<rect x="0" class="st0" width="500" height="500"/>
<g>
	<path class="st1" d="M486.08,226.15c-0.18,3.18-0.43,7.69-0.7,12.19c-0.19,3.19-0.38,6.38-0.6,9.57
		c-0.54,7.77-1.01,15.55-1.68,23.3c-0.62,7.18-1.44,14.35-2.21,21.52c-0.92,8.56-2.16,17.07-3.59,25.56
		c-3.05,18.12-7.07,36-13.28,53.34c-3.59,10.05-7.88,19.78-13.37,28.95c-4.31,7.21-9.29,13.9-15.32,19.77
		c-7.72,7.5-16.59,13.04-27.01,15.97c-4.75,1.34-9.6,2.09-14.53,2.28c-10.54,0.42-20.69-1.59-30.72-4.63
		c-8.98-2.72-16.7-7.48-23.52-13.82c-5.18-4.82-9.77-10.16-13.98-15.84c-7.3-9.84-13.42-20.39-18.93-31.3
		c-9.28-18.39-16.78-37.51-23.16-57.08c-0.79-2.42-0.78-2.41-3.3-2.47c-20.09-0.42-40.18-0.42-60.27,0
		c-2.58,0.05-2.58,0.04-3.35,2.44c-6.1,18.88-13.34,37.31-22.15,55.11c-5.46,11.03-11.53,21.7-18.74,31.7
		c-4.52,6.26-9.46,12.17-15.14,17.42c-2.65,2.45-5.45,4.72-8.45,6.74c-3.75,2.53-7.75,4.56-12.04,6.04
		c-6.44,2.21-13,4.01-19.75,4.95c-11.89,1.65-23.55,0.9-34.79-3.69c-7.93-3.24-14.82-8.02-20.92-13.98
		c-6.32-6.18-11.46-13.26-15.9-20.87c-5.68-9.73-10.04-20.06-13.69-30.69c-3.94-11.48-6.92-23.22-9.39-35.1
		c-1.92-9.23-3.48-18.52-4.79-27.85c-1.04-7.38-1.9-14.79-2.67-22.21c-0.88-8.48-1.58-16.98-2.23-25.48
		c-0.47-6.13-0.78-12.27-1.15-18.41c-0.22-3.68-0.37-7.37-0.61-11.05c-0.57-8.78-0.27-17.53,0.52-26.29
		c1.21-13.29,3.95-26.23,8.49-38.78c5.04-13.92,12.06-26.72,21.76-37.96c13.18-15.26,29.43-25.67,49.03-30.64
		c10.65-2.7,21.46-3.6,32.44-2.9c11.6,0.74,22.82,3.22,33.96,6.47c16.98,4.96,34.04,9.63,51.37,13.26
		c8.99,1.88,18.06,3.33,27.23,3.93c7.53,0.49,15.07,0.43,22.61-0.16c13.44-1.06,26.6-3.71,39.69-6.79
		c12.44-2.93,24.76-6.28,37.05-9.78c4.96-1.41,9.89-2.94,14.93-4.04c9.56-2.09,19.23-3.28,29.03-3.09
		c18.25,0.34,35.3,4.87,50.83,14.65c12.12,7.64,21.96,17.6,29.94,29.45c7.85,11.66,13.39,24.38,17.17,37.88
		c2.48,8.85,4.11,17.87,5.07,27.02C486.1,208.77,486.29,216.79,486.08,226.15z M331.98,217.12
		C331.98,217.12,331.98,217.12,331.98,217.12c-4.1,0-8.2,0-12.3,0c-1.48,0-2.94,0.14-4.4,0.41c-14.08,2.65-22.49,17.26-17.7,30.74
		c3.29,9.25,11.96,15.49,21.77,15.58c6.39,0.06,12.79,0.01,19.18,0.01c2.54,0,5.08-0.01,7.62,0.01c1.04,0.01,1.13,0.13,1.17,1.11
		c0.02,0.57,0.01,1.15,0.01,1.72c0,8.12,0,16.23,0,24.35c0,1.72,0.11,3.43,0.45,5.13c3.3,16.43,22.46,24.19,36.17,14.57
		c6.55-4.59,9.94-11.02,10.08-19c0.15-8.36,0.04-16.72,0.04-25.09c0-0.66,0.01-1.31,0.01-1.97c0-0.64,0.36-0.85,0.93-0.84
		c0.57,0.01,1.15,0,1.72,0c8.12,0,16.23,0,24.35,0c1.56,0,3.1-0.11,4.65-0.37c14.71-2.47,24.16-18.68,17.02-33.17
		c-4.19-8.51-11.33-12.99-20.88-13.17c-8.36-0.16-16.72-0.03-25.09-0.04c-0.66,0-1.31-0.01-1.97-0.02c-0.5-0.01-0.72-0.32-0.73-0.78
		c-0.02-0.66-0.02-1.31-0.02-1.97c0-8.03-0.01-16.07,0-24.1c0-1.56-0.11-3.1-0.36-4.65c-2.62-16.5-21.62-25-35.62-15.85
		c-7.01,4.58-10.67,11.19-10.75,19.61c-0.08,8.28-0.02,16.56-0.02,24.84c0,0.66-0.01,1.31,0,1.97c0,0.57-0.23,0.94-0.85,0.95
		c-0.49,0.01-0.98,0.01-1.48,0.01C340.67,217.12,336.32,217.12,331.98,217.12z M126.37,210.24c10.21,0.07,20-7.92,20.08-19.93
		c0.08-11.56-9.21-20.19-20.11-20.14c-11.15,0.05-19.99,8.99-19.97,20.05C106.4,201.76,115.77,210.24,126.37,210.24z M176.76,260.49
		c10.12,0.14,19.97-8.06,19.97-20.01c0.01-11.91-9.83-20.01-19.97-20.05c-9.92-0.04-20.17,7.8-20.09,20.17
		C156.75,252.94,166.98,260.71,176.76,260.49z M126.46,310.77c9.95,0.17,19.98-7.82,19.98-19.99c0-12.3-10.17-20.16-20.2-20.06
		c-10.26,0.1-19.92,8.33-19.86,20.16C106.44,302.66,116.16,310.96,126.46,310.77z M76.15,220.48c-10.72-0.17-20.02,8.7-20.06,19.92
		c-0.04,11.26,9.18,20.04,19.89,20.13c10.67,0.09,20.2-8.62,20.18-20.08C96.13,229.06,86.69,220.3,76.15,220.48z"/>
	<path class="st1" d="M328.84,93.51c-0.28-0.54-0.17-1.13-0.17-1.69c-0.01-7.46-0.01-14.92,0-22.38c0-0.9-0.04-1.81,0.25-2.68
		c0.96-2.88,2.86-4.73,5.91-5.25c0.8-0.14,1.63-0.17,2.45-0.17c27.71-0.01,55.42-0.01,83.13,0c0.65,0,1.31,0.01,1.96,0.09
		c3.69,0.5,6.24,3.15,6.59,6.85c0.05,0.49,0.03,0.98,0.03,1.47c0,7.87,0,15.74,0,23.61c0,0.49-0.01,0.98-0.05,1.47
		c-0.03,0.3-0.31,0.4-0.53,0.34c-0.47-0.14-0.92-0.33-1.36-0.54c-7.86-3.78-16.08-6.53-24.64-8.16c-8.8-1.68-17.67-2.43-26.66-1.89
		c-11.67,0.71-23.05,2.99-34.34,5.87c-3.73,0.95-7.44,1.97-11.15,2.96C329.78,93.54,329.33,93.76,328.84,93.51z"/>
	<path class="st1" d="M171.37,94.06c-3.18-0.94-6.01-1.76-8.83-2.61c-7.93-2.4-15.98-4.29-24.17-5.54
		c-7.38-1.13-14.82-1.75-22.3-1.51c-15,0.49-29.38,3.66-42.96,10.19c-0.37,0.18-0.74,0.36-1.11,0.52c-0.47,0.2-0.83,0.02-0.86-0.45
		c-0.03-0.41-0.03-0.82-0.03-1.23c0-7.87,0-15.74,0-23.62c0-0.74,0.03-1.48,0.13-2.21c0.43-3.04,2.65-5.43,5.67-6.04
		c0.88-0.18,1.79-0.24,2.68-0.24c27.8-0.01,55.59-0.01,83.39,0c0.9,0,1.81,0.07,2.68,0.25c3.08,0.64,5.35,3.22,5.65,6.33
		c0.05,0.49,0.05,0.98,0.05,1.47c0,7.63,0,15.25,0,22.88C171.37,92.76,171.37,93.24,171.37,94.06z"/>
	<path class="st1" d="M370.73,175.21c4.84,4.41,14.17,13.89,15.36,15.61c-0.19,0.41-0.57,0.24-0.85,0.24
		c-9.57,0.01-19.14,0.01-28.71,0.01c-0.33,0-0.66,0.02-0.98-0.06c-0.22-0.05-0.39-0.28-0.22-0.54c0.13-0.2,0.3-0.39,0.47-0.56
		c4.74-4.74,9.48-9.49,14.23-14.22C370.21,175.53,370.43,175.42,370.73,175.21z"/>
	<path class="st1" d="M305.49,240.61c0.08-0.5,0.4-0.77,0.68-1.05c4.63-4.63,9.25-9.26,13.88-13.89c0.17-0.17,0.34-0.36,0.54-0.49
		c0.11-0.07,0.29-0.08,0.43-0.07c0.2,0.01,0.26,0.15,0.25,0.35c-0.01,0.41,0.02,0.82,0.02,1.23c0,9.25,0,18.49,0,27.74
		c0,0.41,0.02,0.83-0.05,1.22c-0.04,0.23-0.29,0.38-0.54,0.2c-0.26-0.19-0.51-0.41-0.74-0.64c-4.63-4.63-9.26-9.26-13.88-13.89
		C305.86,241.09,305.67,240.82,305.49,240.61z"/>
	<path class="st1" d="M386.08,290.14c0.15,0.41-0.22,0.58-0.41,0.78c-4.69,4.71-9.39,9.4-14.08,14.1c-0.12,0.12-0.24,0.22-0.35,0.34
		c-0.34,0.37-0.69,0.38-1.05,0.04c-0.24-0.23-0.47-0.45-0.7-0.69c-4.47-4.46-8.94-8.92-13.39-13.4c-0.32-0.32-0.82-0.55-0.77-1.15
		c0.28-0.43,0.73-0.25,1.1-0.26C369.63,289.66,383.77,289.78,386.08,290.14z"/>
	<path class="st1" d="M420.38,255.86c-0.08-0.12-0.22-0.25-0.22-0.37c-0.01-10-0.01-20,0-29.99c0-0.12,0.14-0.25,0.22-0.37
		c1.59,1.09,12.77,12.12,15.47,15.25c0,0.07,0.03,0.15,0.01,0.22c-0.02,0.08-0.07,0.15-0.12,0.21c-4.85,4.88-9.71,9.76-14.56,14.64
		c-0.17,0.17-0.37,0.32-0.57,0.47C420.56,255.93,420.45,255.88,420.38,255.86z"/>
</g>
</svg>
