<?xml version="1.0" encoding="utf-8"?>
<!-- Generator: Adobe Illustrator 24.3.0, SVG Export Plug-In . SVG Version: 6.00 Build 0)  -->
<svg version="1.1" id="Layer_1" xmlns="http://www.w3.org/2000/svg" xmlns:xlink="http://www.w3.org/1999/xlink" x="0px" y="0px"
	 viewBox="0 0 500 500" style="enable-background:new 0 0 500 500;" xml:space="preserve">
<style type="text/css">
	.st0{fill:#FFFFFF;}
</style>
<path class="st0" d="M499.95,236.73c0,9.34,0,18.69,0,28.03c-0.88,0.38-0.48,1.17-0.52,1.77c-1.22,17.57-4.1,34.85-8.98,51.79
	c-13.53,46.93-38.52,86.72-75.17,118.96c-42.13,37.08-91.4,57.57-147.35,61.82c-23.59,1.79-46.98,0.06-70.12-4.93
	c-42.05-9.06-79.48-27.54-111.67-56.01C35.88,393.7,7.51,337.88,1.38,270.94c-2.38-26-0.53-51.76,5.44-77.14
	c12.64-53.73,39.99-98.68,82.07-134.37c40.45-34.3,87.31-53.62,140.18-58.31c2.11-0.19,4.35,0.21,6.34-0.89c9.34,0,18.69,0,28.03,0
	c0.24,0.67,0.83,0.44,1.29,0.46c27.66,1.5,54.28,7.63,79.95,18.01C431,53.6,491.49,135.97,499.06,228.82
	C499.28,231.45,498.9,234.18,499.95,236.73z M284.4,150.08c-1.04,0-1.69,0-2.33,0c-56.23,0-112.46,0.01-168.69-0.03
	c-3.99,0-7.05,1.57-9.46,4.58c-2.54,3.17-3.6,6.79-3.59,10.87c0.04,56.91,0.02,113.82,0.02,170.73c0,9.04,4.59,13.65,13.58,13.65
	c90.8,0,181.6,0,272.41,0c9.17,0,13.72-4.57,13.72-13.77c-0.01-56.66-0.02-113.31-0.03-169.97c0-0.85,0.02-1.7-0.03-2.55
	c-0.44-7.23-5.94-13.46-12.12-13.5c-11.89-0.07-23.78-0.02-35.68-0.02c-0.85,0-1.59-0.01-2.25,0.79
	c-5.13,6.28-10.32,12.52-15.81,19.15c1.29,0,2.1,0,2.91,0c13.51,0,27.01,0.05,40.52-0.05c2.16-0.02,2.61,0.61,2.6,2.68
	c-0.06,46.55-0.06,93.1,0,139.65c0,2.13-0.53,2.64-2.64,2.64c-84.86-0.06-169.71-0.06-254.57,0.01c-2.37,0-2.71-0.71-2.71-2.84
	c0.06-46.46,0.07-92.93-0.01-139.39c0-2.3,0.6-2.75,2.8-2.75c45.1,0.07,90.21,0.05,135.31,0.05c3.91,0,7.81,0.01,11.72-0.01
	c0.8,0,1.62,0.22,2.22-0.75C276.21,162.96,280.21,156.7,284.4,150.08z M339.21,108.07c-7.65,0.44-14.27,4.6-19.31,11.42
	c-3.38,4.57-6.55,9.29-9.85,13.91c-26.66,37.34-52.3,75.4-79.67,112.24c-1.81,2.44-1.69,3.48,0.59,5.37
	c2.68,2.22,5.39,4.4,8.13,6.55c2.47,1.94,3.44,1.86,5.55-0.58c2-2.31,3.79-4.8,5.86-7.05c32.67-35.59,65.37-71.16,98.06-106.74
	c4.26-4.64,6.76-10.11,7.49-16.36C357.3,116.29,350.35,108.07,339.21,108.07z M250.22,391.76c0-0.01,0-0.03,0-0.04
	c1.78,0,3.57-0.01,5.35,0c12.56,0.04,25.13,0.33,37.69-0.01c0.85-0.02,1.86,0.07,2.29-0.78c0.48-0.97-0.25-1.75-0.88-2.46
	c-1.58-1.79-3.45-3.26-5.37-4.67c-3.39-2.48-5.39-5.81-6.05-9.93c-0.64-4.02-1.31-8.04-1.78-12.08c-0.18-1.53-0.68-1.92-2.18-1.91
	c-19.44,0.05-38.89,0.06-58.33-0.01c-1.62-0.01-2.01,0.62-2.17,1.98c-0.36,2.95-0.96,5.87-1.19,8.82
	c-0.53,6.57-3.03,11.9-8.83,15.46c-1.28,0.79-2.38,1.92-3.4,3.05c-1.24,1.38-0.79,2.3,1.05,2.49c0.67,0.07,1.36,0.08,2.04,0.08
	C222.38,391.76,236.3,391.76,250.22,391.76z M176.16,284.86c1.72,1.45,3.25,1.54,4.68,1.8c8.67,1.53,17.41,1.63,26.14,0.93
	c9.08-0.73,18.01-2.3,26.27-6.38c7.84-3.87,9.31-10.7,3.87-17.54c-4.07-5.11-9.41-8.27-15.8-9.48c-8.1-1.53-14.3,2.19-17.12,10.03
	c-1.06,2.94-2.11,5.89-3.18,8.83c-2.59,7.16-7.65,10.94-15.3,11.22C182.71,284.38,179.72,284.64,176.16,284.86z"/>
<path d="M235.42,0.23c-2,1.1-4.24,0.7-6.34,0.89c-52.87,4.7-99.73,24.01-140.18,58.31C46.81,95.12,19.46,140.06,6.82,193.79
	C0.85,219.18-1,244.94,1.38,270.94c6.13,66.94,34.5,122.76,84.76,167.23c32.18,28.48,69.62,46.96,111.67,56.01
	c23.14,4.98,46.53,6.72,70.12,4.93c55.95-4.25,105.22-24.74,147.35-61.82c36.64-32.25,61.64-72.03,75.17-118.96
	c4.88-16.93,7.76-34.22,8.98-51.79c0.04-0.6-0.36-1.4,0.52-1.77c0,77.72-0.01,155.43,0.04,233.15c0,1.84-0.29,2.39-2.3,2.39
	c-165.11-0.06-330.23-0.06-495.34,0c-2.07,0-2.48-0.41-2.48-2.48C-0.06,332.8-0.06,167.77-0.13,2.73c0-2.27,0.61-2.56,2.65-2.56
	C80.15,0.24,157.79,0.23,235.42,0.23z"/>
<path d="M499.95,236.73c-1.05-2.55-0.68-5.28-0.89-7.91C491.49,135.97,431,53.6,344.69,18.7C319.02,8.32,292.4,2.19,264.74,0.69
	c-0.46-0.02-1.05,0.21-1.29-0.46c78.07,0,156.14,0.01,234.21-0.05c1.91,0,2.34,0.43,2.34,2.34
	C499.94,80.59,499.95,158.66,499.95,236.73z"/>
<path d="M284.4,150.08c-4.19,6.61-8.18,12.88-12.12,19.18c-0.61,0.97-1.42,0.75-2.22,0.75c-3.91,0.02-7.81,0.01-11.72,0.01
	c-45.1,0-90.21,0.02-135.31-0.05c-2.2,0-2.8,0.45-2.8,2.75c0.08,46.46,0.07,92.93,0.01,139.39c0,2.13,0.34,2.84,2.71,2.84
	c84.86-0.07,169.71-0.07,254.57-0.01c2.11,0,2.64-0.51,2.64-2.64c-0.07-46.55-0.07-93.1,0-139.65c0-2.07-0.44-2.69-2.6-2.68
	c-13.5,0.11-27.01,0.05-40.52,0.05c-0.81,0-1.62,0-2.91,0c5.49-6.64,10.68-12.87,15.81-19.15c0.66-0.81,1.4-0.79,2.25-0.79
	c11.89,0,23.78-0.05,35.68,0.02c6.18,0.04,11.68,6.26,12.12,13.5c0.05,0.85,0.03,1.7,0.03,2.55c0.01,56.66,0.02,113.31,0.03,169.97
	c0,9.2-4.55,13.77-13.72,13.77c-90.8,0-181.6,0-272.41,0c-9,0-13.58-4.61-13.58-13.65c0-56.91,0.01-113.82-0.02-170.73
	c0-4.08,1.06-7.7,3.59-10.87c2.42-3.01,5.47-4.59,9.46-4.58c56.23,0.04,112.46,0.03,168.69,0.03
	C282.71,150.08,283.36,150.08,284.4,150.08z"/>
<path d="M339.21,108.07c11.14,0,18.09,8.22,16.85,18.77c-0.73,6.25-3.23,11.73-7.49,16.36c-32.69,35.58-65.39,71.15-98.06,106.74
	c-2.06,2.25-3.86,4.74-5.86,7.05c-2.1,2.43-3.08,2.52-5.55,0.58c-2.73-2.15-5.45-4.33-8.13-6.55c-2.28-1.88-2.4-2.93-0.59-5.37
	c27.37-36.84,53-74.9,79.67-112.24c3.3-4.62,6.47-9.35,9.85-13.91C324.94,112.67,331.56,108.51,339.21,108.07z M328.41,125.7
	c2.64-5.77,7.47-9.24,12.83-12.85c-6.83-0.41-12.26,1.23-16.54,6.01c-1.26,1.4-2.08,2.58,0.23,3.86
	C326.15,123.39,327.11,124.56,328.41,125.7z"/>
<path d="M250.22,391.76c-13.92,0-27.85,0-41.77,0c-0.68,0-1.36-0.01-2.04-0.08c-1.84-0.19-2.29-1.11-1.05-2.49
	c1.01-1.13,2.12-2.26,3.4-3.05c5.8-3.56,8.3-8.9,8.83-15.46c0.24-2.95,0.84-5.88,1.19-8.82c0.17-1.36,0.55-1.99,2.17-1.98
	c19.44,0.07,38.89,0.06,58.33,0.01c1.5,0,2.01,0.38,2.18,1.91c0.46,4.04,1.13,8.06,1.78,12.08c0.66,4.12,2.66,7.45,6.05,9.93
	c1.92,1.4,3.78,2.87,5.37,4.67c0.63,0.71,1.36,1.49,0.88,2.46c-0.42,0.86-1.43,0.76-2.29,0.78c-12.56,0.34-25.13,0.05-37.69,0.01
	c-1.78-0.01-3.57,0-5.35,0C250.22,391.73,250.22,391.74,250.22,391.76z"/>
<path d="M176.16,284.86c3.57-0.22,6.56-0.48,9.55-0.59c7.66-0.28,12.71-4.06,15.3-11.22c1.07-2.94,2.12-5.89,3.18-8.83
	c2.82-7.84,9.03-11.56,17.12-10.03c6.39,1.21,11.73,4.36,15.8,9.48c5.44,6.84,3.98,13.67-3.87,17.54
	c-8.26,4.08-17.19,5.65-26.27,6.38c-8.73,0.7-17.47,0.61-26.14-0.93C179.41,286.41,177.87,286.32,176.16,284.86z"/>
<path class="st0" d="M328.41,125.7c-1.3-1.14-2.26-2.3-3.48-2.98c-2.31-1.28-1.49-2.46-0.23-3.86c4.28-4.77,9.72-6.41,16.54-6.01
	C335.88,116.45,331.05,119.92,328.41,125.7z"/>
</svg>
