<?xml version="1.0" encoding="utf-8"?>
<!-- Generator: Adobe Illustrator 24.3.0, SVG Export Plug-In . SVG Version: 6.00 Build 0)  -->
<svg version="1.1" id="Layer_1" xmlns="http://www.w3.org/2000/svg" xmlns:xlink="http://www.w3.org/1999/xlink" x="0px" y="0px"
	 viewBox="0 0 500 500" style="enable-background:new 0 0 500 500;" xml:space="preserve">
<style type="text/css">
	.st0{fill:#141414;}
	.st1{fill:#FF0000;}
</style>
<rect class="st0" width="500" height="500"/>
<g>
	<path class="st1" d="M0.2,250.2c0-40.9-0.1-81.8,0.1-122.7C0.3,111.9,1,96.3,5.3,81.1c11.6-40.6,38-66.2,79-76.6
		c17.5-4.4,35.6-4.5,53.5-4.5C214.6,0,291.3,0,368,0.1c16.9,0,33.8,0.7,50.4,4.9c42.1,10.6,72.9,44.7,79.3,87.7
		c1.5,10.2,2.3,20.5,2.3,30.9c0,86.2,0.1,172.5-0.1,258.7c0,19.7-3,39-11.9,56.9c-15,30.1-39.1,49-71.7,56.8
		c-17.6,4.2-35.6,4.5-53.5,4.5c-76.8,0.1-153.7,0.1-230.5-0.1c-17.4,0-34.8-0.5-51.7-5.4c-40.3-11.7-65.6-38.1-75.9-78.6
		c-4.6-18.1-4.5-36.7-4.5-55.2c-0.1-37,0-73.9,0-110.9C0.1,250.2,0.1,250.2,0.2,250.2z M252,436.1c16.6-0.1,36,0.2,55.5-0.5
		c16.2-0.5,32.5-0.7,48.5-4.6c38.7-9.5,63.3-33.5,73.9-71.9c4.3-15.6,4.8-31.7,5.1-47.8c0.9-40.9,0.9-81.8,0-122.7
		c-0.3-15-0.8-30.1-4.5-44.8c-9.5-38.1-32.8-62.8-70.8-73.6c-15.7-4.4-31.9-5.2-48-5.4c-48.2-0.8-96.5-1.6-144.7,1
		c-17.1,0.9-33.6,4.5-48.7,12.6C89.8,93.8,73.8,118,67.8,149.3c-3.1,16.1-3.3,32.5-3.5,48.9c-0.4,42.4-1.1,84.8,0.7,127.2
		c0.5,11.8,1.8,23.6,5,35.1c8.2,29.5,25.7,51.2,53.7,64c15.5,7.1,32.1,9.6,49,10.5C198.2,436.3,223.6,436.1,252,436.1z"/>
	<path class="st0" d="M252,436.1c-28.4,0-53.9,0.2-79.3-1.1c-16.9-0.9-33.5-3.4-49-10.5c-28-12.8-45.5-34.5-53.7-64
		c-3.2-11.5-4.5-23.2-5-35.1c-1.8-42.4-1.2-84.8-0.7-127.2c0.2-16.4,0.4-32.7,3.5-48.9c6-31.3,22.1-55.6,50.6-70.8
		c15.2-8.1,31.7-11.7,48.7-12.6c48.2-2.6,96.4-1.8,144.7-1c16.1,0.2,32.3,1,48,5.4c38,10.7,61.3,35.5,70.8,73.6
		c3.7,14.7,4.1,29.8,4.5,44.8c0.9,40.9,0.9,81.8,0,122.7c-0.4,16.1-0.8,32.2-5.1,47.8c-10.6,38.4-35.2,62.4-73.9,71.9
		c-15.9,3.9-32.2,4-48.5,4.6C288.1,436.3,268.6,436,252,436.1z M97.4,253.2c0,8.1-0.1,16.2,0,24.3c0.2,21-0.1,42.1,2.4,63.1
		c3.6,29.6,20.9,49.9,49.2,57.5c13.1,3.5,26.6,3.8,40,4.1c38.6,0.9,77.3,0.9,115.9,0.1c14.2-0.3,28.4-0.4,42.4-3.5
		c25.4-5.7,42.5-20.7,49.8-46c4-13.8,4.2-28,4.6-42.2c0.9-31.2,0.7-62.4,0.4-93.7c-0.1-19.4,0-38.9-2.6-58.3
		c-3.9-28.9-21.3-48.9-49.1-56.3c-13.4-3.6-27.2-3.8-40.9-4.1c-32.7-0.8-65.4-0.7-98.2-0.3c-17.4,0.2-34.8,0.1-52.1,2.5
		c-29.4,4-50.1,20.7-57.4,49.3c-3.4,13.5-3.7,27.4-4.1,41.2C97.2,211.7,97.4,232.4,97.4,253.2z"/>
	<path class="st1" d="M97.4,253.2c-0.1-20.8-0.3-41.6,0.3-62.3c0.4-13.8,0.6-27.6,4.1-41.2c7.3-28.6,28-45.3,57.4-49.3
		c17.3-2.4,34.7-2.3,52.1-2.5c32.7-0.3,65.4-0.4,98.2,0.3c13.7,0.3,27.5,0.5,40.9,4.1c27.9,7.4,45.2,27.4,49.1,56.3
		c2.6,19.4,2.5,38.8,2.6,58.3c0.2,31.2,0.5,62.4-0.4,93.7c-0.4,14.2-0.6,28.4-4.6,42.2c-7.3,25.3-24.3,40.3-49.8,46
		c-13.9,3.1-28.2,3.2-42.4,3.5c-38.6,0.7-77.3,0.7-115.9-0.1c-13.4-0.3-26.9-0.6-40-4.1c-28.3-7.6-45.6-27.9-49.2-57.5
		c-2.6-21-2.3-42-2.4-63.1C97.4,269.4,97.4,261.3,97.4,253.2z M345.2,250.1c-0.2-52.8-43-95.4-95.6-95.3
		c-53.2,0.2-95.4,43-95.3,96.4c0.2,52.1,43.3,94.6,95.8,94.4C302.7,345.5,345.4,302.6,345.2,250.1z M348.8,129
		c-12.3-0.1-22.3,9.8-22.4,22c-0.1,12.4,9.8,22.5,22.2,22.6c12.4,0.1,22.5-9.9,22.5-22.2C371.1,138.9,361.3,129.1,348.8,129z"/>
	<path class="st0" d="M345.2,250.1c0.2,52.5-42.5,95.4-95,95.5c-52.5,0.2-95.6-42.3-95.8-94.4c-0.2-53.4,42.1-96.2,95.3-96.4
		C302.2,154.7,345,197.3,345.2,250.1z M311.8,250.2c0.2-33.5-27.5-61.6-61-61.9c-34.5-0.3-62.7,27-62.9,60.8
		c-0.2,34.8,27,62.8,61.2,63.1C283.7,312.4,311.5,284.9,311.8,250.2z"/>
	<path class="st0" d="M348.8,129c12.5,0.1,22.3,9.9,22.3,22.4c0,12.3-10.2,22.3-22.5,22.2c-12.3-0.1-22.2-10.2-22.2-22.6
		C326.5,138.8,336.5,128.9,348.8,129z"/>
	<path class="st1" d="M311.8,250.2c-0.2,34.7-28,62.2-62.7,62c-34.2-0.2-61.5-28.3-61.2-63.1c0.2-33.8,28.4-61.1,62.9-60.8
		C284.3,188.6,312,216.7,311.8,250.2z"/>
</g>
</svg>
