<?xml version="1.0" encoding="utf-8"?>
<!-- Generator: Adobe Illustrator 24.3.0, SVG Export Plug-In . SVG Version: 6.00 Build 0)  -->
<svg version="1.1" id="Layer_1" xmlns="http://www.w3.org/2000/svg" xmlns:xlink="http://www.w3.org/1999/xlink" x="0px" y="0px"
	 viewBox="0 0 500 500" style="enable-background:new 0 0 500 500;" xml:space="preserve">
<style type="text/css">
	.st0{fill:#141414;}
	.st1{fill:#FFFFFF;}
</style>
<rect x="0" class="st0" width="500" height="500"/>
<g>
	<path class="st1" d="M0.16,250.25c0-40.91-0.12-81.81,0.06-122.72c0.07-15.61,0.76-31.26,5.09-46.39
		C16.92,40.52,43.34,14.9,84.28,4.55c17.54-4.44,35.59-4.48,53.54-4.49c76.74-0.08,153.48-0.08,230.22,0.06
		c16.92,0.03,33.84,0.71,50.39,4.89c42.07,10.64,72.9,44.74,79.28,87.66c1.52,10.25,2.3,20.53,2.29,30.9
		c-0.04,86.23,0.08,172.47-0.1,258.7c-0.04,19.69-3.01,39.01-11.94,56.88c-15.03,30.07-39.08,48.96-71.72,56.82
		c-17.6,4.24-35.6,4.45-53.55,4.46c-76.83,0.07-153.67,0.08-230.5-0.06c-17.39-0.03-34.85-0.5-51.72-5.39
		c-40.27-11.68-65.58-38.08-75.89-78.63c-4.6-18.1-4.47-36.71-4.52-55.23c-0.1-36.96-0.03-73.92-0.03-110.87
		C0.07,250.25,0.12,250.25,0.16,250.25z M252.03,436.12c16.56-0.09,36.03,0.2,55.49-0.45c16.24-0.54,32.55-0.66,48.46-4.56
		c38.68-9.47,63.34-33.45,73.91-71.85c4.3-15.64,4.77-31.74,5.14-47.8c0.94-40.9,0.93-81.81,0-122.71
		c-0.34-15.02-0.8-30.08-4.45-44.78c-9.47-38.1-32.83-62.85-70.8-73.57c-15.73-4.44-31.9-5.16-48.04-5.41
		c-48.23-0.75-96.47-1.61-144.68,0.99c-17.05,0.92-33.55,4.54-48.71,12.61c-28.5,15.17-44.57,39.44-50.56,70.75
		c-3.09,16.14-3.34,32.53-3.51,48.88c-0.44,42.4-1.07,84.81,0.71,127.2c0.5,11.84,1.78,23.59,4.97,35.07
		c8.2,29.5,25.73,51.18,53.73,64c15.53,7.11,32.11,9.6,49.01,10.49C198.16,436.33,223.65,436.08,252.03,436.12z"/>
	<path class="st0" d="M252.03,436.12c-28.39-0.04-53.87,0.21-79.34-1.13c-16.91-0.89-33.48-3.37-49.01-10.49
		c-28-12.82-45.53-34.5-53.73-64c-3.19-11.48-4.48-23.23-4.97-35.07c-1.78-42.39-1.16-84.8-0.71-127.2
		c0.17-16.35,0.42-32.73,3.51-48.88c6-31.32,22.07-55.58,50.56-70.75c15.17-8.08,31.67-11.69,48.71-12.61
		c48.21-2.6,96.45-1.75,144.68-0.99c16.14,0.25,32.31,0.97,48.04,5.41c37.97,10.72,61.33,35.46,70.8,73.57
		c3.66,14.7,4.11,29.76,4.45,44.78c0.94,40.9,0.94,81.81,0,122.71c-0.37,16.06-0.84,32.16-5.14,47.8
		c-10.57,38.4-35.23,62.37-73.91,71.85c-15.92,3.9-32.22,4.02-48.46,4.56C288.06,436.31,268.59,436.03,252.03,436.12z M97.43,253.23
		c0,8.09-0.05,16.18,0.01,24.26c0.16,21.05-0.14,42.12,2.42,63.08c3.61,29.56,20.9,49.9,49.17,57.5c13.1,3.52,26.6,3.8,40.02,4.1
		c38.64,0.85,77.29,0.86,115.94,0.13c14.18-0.27,28.43-0.37,42.37-3.5c25.44-5.71,42.45-20.69,49.79-46.02
		c3.99-13.79,4.17-28.03,4.58-42.19c0.9-31.21,0.68-62.44,0.44-93.66c-0.15-19.45-0.03-38.93-2.65-58.28
		c-3.91-28.88-21.27-48.89-49.13-56.29c-13.38-3.55-27.16-3.76-40.87-4.08c-32.72-0.77-65.45-0.66-98.17-0.34
		c-17.39,0.17-34.8,0.11-52.08,2.47c-29.42,4.02-50.07,20.7-57.38,49.32c-3.45,13.51-3.68,27.35-4.09,41.15
		C97.17,211.66,97.38,232.45,97.43,253.23z"/>
	<path class="st1" d="M97.43,253.23c-0.05-20.78-0.26-41.57,0.35-62.34c0.41-13.8,0.63-27.65,4.09-41.15
		c7.32-28.62,27.96-45.3,57.38-49.32c17.28-2.36,34.69-2.3,52.08-2.47c32.72-0.32,65.45-0.43,98.17,0.34
		c13.71,0.32,27.49,0.53,40.87,4.08c27.86,7.39,45.22,27.4,49.13,56.29c2.62,19.35,2.51,38.83,2.65,58.28
		c0.24,31.22,0.46,62.44-0.44,93.66c-0.41,14.16-0.59,28.41-4.58,42.19c-7.34,25.33-24.34,40.31-49.79,46.02
		c-13.94,3.13-28.18,3.23-42.37,3.5c-38.65,0.73-77.3,0.72-115.94-0.13c-13.42-0.3-26.92-0.58-40.02-4.1
		c-28.27-7.6-45.56-27.94-49.17-57.5c-2.56-20.96-2.26-42.03-2.42-63.08C97.38,269.4,97.43,261.32,97.43,253.23z M345.21,250.13
		c-0.19-52.8-42.98-95.45-95.6-95.27c-53.18,0.18-95.45,42.96-95.26,96.39c0.19,52.11,43.29,94.59,95.83,94.43
		C302.71,345.53,345.39,302.61,345.21,250.13z M348.79,129c-12.31-0.05-22.34,9.81-22.4,22.03c-0.07,12.44,9.82,22.54,22.16,22.63
		c12.37,0.09,22.5-9.9,22.53-22.24C371.11,138.95,361.26,129.05,348.79,129z"/>
	<path class="st0" d="M345.21,250.13c0.19,52.48-42.5,95.4-95.03,95.55c-52.53,0.16-95.63-42.32-95.83-94.43
		c-0.2-53.43,42.08-96.21,95.26-96.39C302.23,154.69,345.02,197.33,345.21,250.13z M311.76,250.21
		c0.22-33.52-27.49-61.62-61.02-61.88c-34.46-0.27-62.67,26.99-62.89,60.78c-0.23,34.76,27.04,62.84,61.23,63.06
		C283.73,312.4,311.53,284.91,311.76,250.21z"/>
	<path class="st0" d="M348.79,129c12.47,0.05,22.32,9.95,22.29,22.42c-0.03,12.34-10.16,22.34-22.53,22.24
		c-12.33-0.09-22.22-10.2-22.16-22.63C326.45,138.81,336.48,128.95,348.79,129z"/>
	<path class="st1" d="M311.76,250.21c-0.23,34.7-28.03,62.19-62.67,61.96c-34.2-0.22-61.46-28.3-61.23-63.06
		c0.22-33.79,28.42-61.05,62.89-60.78C284.27,188.59,311.98,216.69,311.76,250.21z"/>
</g>
</svg>
