<?xml version="1.0" encoding="utf-8"?>
<!-- Generator: Adobe Illustrator 24.3.0, SVG Export Plug-In . SVG Version: 6.00 Build 0)  -->
<svg version="1.1" id="Layer_1" xmlns="http://www.w3.org/2000/svg" xmlns:xlink="http://www.w3.org/1999/xlink" x="0px" y="0px"
	 viewBox="0 0 500 500" style="enable-background:new 0 0 500 500;" xml:space="preserve">
<style type="text/css">
	.st0{fill:#1B1B1B;}
	.st1{fill:#FFFFFF;}
</style>
<rect class="st0" width="500" height="500"/>
<path class="st1" d="M302.51,139.36c40.35,0,80.7,0,121.06,0c22.62,0,35.49,12.87,35.49,35.51c0.01,94.96,0.01,189.93,0,284.89
	c0,22.26-12.28,34.56-34.54,34.56c-116.2,0.02-232.41,0.01-348.61,0.01c-23.66,0-36.94-13.13-36.99-36.96
	c-0.1-41.32-0.03-82.65-0.03-123.97c0-64.01,0.02-128.02-0.02-192.03c0-7.84,0.72-15.52,3.86-22.8c3.46-8.01,9.04-13.3,17.78-15.74
	C173.95,71.15,287.34,39.3,400.76,7.55c3.56-1,7.28-1.61,10.97-1.94c6.98-0.63,12.95,1.78,16.78,7.71
	c11.14,17.24,22.25,34.53,30.18,53.58c5.21,12.5,3.48,17.95-8.47,24.72c-12.48,7.06-26.42,10.4-39.98,14.56
	c-34.75,10.67-69.62,20.92-104.44,31.34c-1.18,0.35-2.33,0.8-3.49,1.2C302.38,138.94,302.44,139.15,302.51,139.36z M248.5,227.9
	c0-0.01,0-0.02,0-0.03c-54.95,0-109.9,0.05-164.84-0.1c-4-0.01-5,0.86-4.99,4.94c0.14,69.37,0.14,138.74,0,208.1
	c-0.01,3.99,0.85,5,4.94,5c109.9-0.13,219.79-0.13,329.69-0.01c3.95,0,5.03-0.78,5.02-4.91c-0.14-69.37-0.13-138.74,0.02-208.1
	c0.01-4.04-0.95-5-4.99-4.99C358.39,227.95,303.45,227.9,248.5,227.9z M365.57,211.62c0,0.01,0,0.02,0,0.03
	c2.11,0,4.25-0.25,6.31,0.04c10.3,1.47,16.59-3.64,20.64-12.43c3.65-7.92,7.38-15.81,10.77-23.84c2.87-6.8-0.25-11.37-7.81-11.69
	c-4.69-0.2-9.42,0.23-14.09-0.12c-10.67-0.8-17.56,4.52-22.16,13.4c-3.49,6.73-6.63,13.66-9.74,20.58c-0.98,2.18-1.64,4.6-1.96,6.98
	c-0.59,4.38,1.5,6.83,5.89,7.01C357.46,211.75,361.52,211.62,365.57,211.62z M279.99,211.32c15.31,3.46,22.41-5.56,27.43-17.92
	c2.19-5.38,4.68-10.64,6.99-15.97c3.63-8.38,0.38-13.44-8.89-13.71c-4.86-0.14-9.73,0.14-14.58-0.09
	c-7.17-0.33-12.69,2.74-16.54,8.39c-5.66,8.31-9.64,17.57-13.14,26.93c-2.37,6.33,2.17,12.04,9.02,12.34
	C273.5,211.44,276.75,211.32,279.99,211.32z M191.03,211.33c6.7-0.11,13.67,1.19,19.25-4.25c3.65-3.56,6.42-7.66,8.49-12.27
	c2.57-5.74,5.14-11.47,7.65-17.24c3.49-8.01,0.29-13.34-8.5-13.81c-5-0.27-10.04,0.13-15.04-0.14c-7.81-0.43-13.38,3.11-17.33,9.45
	c-4.87,7.82-8.53,16.3-12.04,24.77c-3.14,7.57,1.41,13.39,9.75,13.48C185.85,211.35,188.44,211.33,191.03,211.33z M369.92,46.01
	c-6.81,1.24-14.25,2.88-21.27,5.76c-4.8,1.97-6.32,7.08-3.2,11.32c5.26,7.16,10.96,14.05,17.66,19.95
	c3.33,2.93,7.53,4.26,11.94,4.95c8.22,1.28,15.6-2.13,23.19-4.15c7.81-2.07,9.59-8.05,4.47-14.41c-4.36-5.42-8.97-10.66-13.72-15.74
	C384.09,48.43,377.63,46.51,369.92,46.01z M294.4,111.09c6.86-1.23,14.47-2.83,21.63-5.85c4.34-1.84,5.99-6.78,3.27-10.6
	c-5.62-7.89-11.65-15.55-19.38-21.57c-2.82-2.2-6.29-3.19-9.84-3.87c-8.4-1.59-15.94,1.93-23.66,4.02
	c-8.17,2.22-9.93,8.17-4.59,14.65c4.22,5.12,8.64,10.09,13.09,15.01C279.89,108.37,286.4,110.48,294.4,111.09z M199.44,91.38
	c-5.9,0.62-12.74,2.61-19.45,4.87c-6.59,2.21-8.23,7.97-3.83,13.43c4.67,5.79,9.69,11.31,14.72,16.81c2.91,3.18,6.81,4.8,10.89,6.05
	c9.4,2.9,17.86-1.3,26.47-3.66c7.66-2.1,9.39-7.94,4.44-14.07c-4.47-5.54-9.18-10.91-14.06-16.09
	C213.82,93.63,207.6,91.56,199.44,91.38z M107.3,179.35c11.08-0.02,20.03-8.9,20.11-19.93c0.08-11.32-8.88-20.3-20.22-20.27
	c-11.17,0.03-19.97,8.75-20.08,19.9C86.99,170.34,95.97,179.37,107.3,179.35z"/>
<path class="st0" d="M248.5,227.9c54.95,0,109.9,0.05,164.84-0.1c4.04-0.01,5,0.94,4.99,4.99c-0.15,69.37-0.16,138.74-0.02,208.1
	c0.01,4.13-1.07,4.92-5.02,4.91c-109.9-0.12-219.79-0.12-329.69,0.01c-4.09,0-4.95-1.01-4.94-5c0.14-69.37,0.14-138.74,0-208.1
	c-0.01-4.08,0.99-4.95,4.99-4.94c54.95,0.15,109.9,0.1,164.84,0.1C248.5,227.88,248.5,227.89,248.5,227.9z"/>
<path class="st0" d="M365.57,211.62c-4.05,0-8.11,0.13-12.15-0.04c-4.39-0.18-6.48-2.63-5.89-7.01c0.32-2.38,0.98-4.79,1.96-6.98
	c3.11-6.92,6.25-13.85,9.74-20.58c4.6-8.88,11.5-14.2,22.16-13.4c4.67,0.35,9.4-0.08,14.09,0.12c7.56,0.32,10.68,4.88,7.81,11.69
	c-3.39,8.03-7.11,15.92-10.77,23.84c-4.05,8.79-10.34,13.89-20.64,12.43c-2.07-0.29-4.21-0.04-6.31-0.04
	C365.57,211.64,365.57,211.63,365.57,211.62z"/>
<path class="st0" d="M279.99,211.32c-3.24,0-6.49,0.12-9.72-0.02c-6.85-0.3-11.39-6.01-9.02-12.34c3.5-9.36,7.49-18.62,13.14-26.93
	c3.85-5.65,9.37-8.72,16.54-8.39c4.85,0.22,9.72-0.06,14.58,0.09c9.27,0.27,12.52,5.33,8.89,13.71c-2.31,5.33-4.8,10.59-6.99,15.97
	C302.39,205.75,295.29,214.78,279.99,211.32z"/>
<path class="st0" d="M191.03,211.33c-2.59,0-5.18,0.03-7.76,0c-8.34-0.1-12.89-5.92-9.75-13.48c3.51-8.47,7.17-16.95,12.04-24.77
	c3.95-6.33,9.51-9.87,17.33-9.45c5,0.27,10.04-0.13,15.04,0.14c8.79,0.47,11.99,5.8,8.5,13.81c-2.51,5.76-5.08,11.5-7.65,17.24
	c-2.07,4.61-4.84,8.71-8.49,12.27C204.7,212.52,197.73,211.22,191.03,211.33z"/>
<path class="st0" d="M369.92,46.01c7.71,0.51,14.17,2.43,19.07,7.68c4.75,5.08,9.36,10.32,13.72,15.74
	c5.12,6.36,3.34,12.34-4.47,14.41c-7.58,2.01-14.97,5.42-23.19,4.15c-4.41-0.69-8.61-2.03-11.94-4.95
	c-6.71-5.89-12.4-12.78-17.66-19.95c-3.12-4.25-1.6-9.36,3.2-11.32C355.67,48.88,363.11,47.25,369.92,46.01z"/>
<path class="st0" d="M294.4,111.09c-8-0.61-14.51-2.72-19.47-8.2c-4.45-4.92-8.87-9.89-13.09-15.01
	c-5.34-6.48-3.58-12.43,4.59-14.65c7.72-2.1,15.26-5.61,23.66-4.02c3.55,0.67,7.02,1.67,9.84,3.87
	c7.73,6.02,13.75,13.68,19.38,21.57c2.72,3.82,1.07,8.76-3.27,10.6C308.87,108.26,301.26,109.86,294.4,111.09z"/>
<path class="st0" d="M199.44,91.38c8.15,0.17,14.38,2.25,19.17,7.34c4.88,5.18,9.59,10.55,14.06,16.09
	c4.95,6.13,3.21,11.97-4.44,14.07c-8.61,2.36-17.07,6.56-26.47,3.66c-4.07-1.26-7.98-2.87-10.89-6.05
	c-5.02-5.5-10.05-11.01-14.72-16.81c-4.4-5.46-2.76-11.22,3.83-13.43C186.71,94,193.54,92.01,199.44,91.38z"/>
<path class="st0" d="M107.3,179.35c-11.33,0.02-20.3-9-20.19-20.3c0.11-11.15,8.91-19.87,20.08-19.9
	c11.33-0.03,20.29,8.95,20.22,20.27C127.33,170.45,118.37,179.33,107.3,179.35z"/>
</svg>
