<?xml version="1.0" encoding="utf-8"?>
<!-- Generator: Adobe Illustrator 24.3.0, SVG Export Plug-In . SVG Version: 6.00 Build 0)  -->
<svg version="1.1" id="Layer_1" xmlns="http://www.w3.org/2000/svg" xmlns:xlink="http://www.w3.org/1999/xlink" x="0px" y="0px"
	 viewBox="0 0 500 500" style="enable-background:new 0 0 500 500;" xml:space="preserve">
<style type="text/css">
	.st0{fill:#1B1B1B;}
	.st1{fill:#FFFFFF;}
</style>
<g>
	<path class="st0" d="M249.94,499.91c-81.71,0-163.42-0.02-245.13,0.06c-3.3,0-4.81-0.03-4.81-4.35
		C0.16,331.83,0.16,168.04,0.03,4.25c0-3.77,0.96-4.23,4.4-4.23C168.2,0.12,331.98,0.13,495.75,0c3.76,0,4.23,0.96,4.23,4.4
		c-0.1,163.79-0.11,327.58,0.02,491.37c0,3.77-0.96,4.24-4.4,4.23C413.71,499.88,331.82,499.91,249.94,499.91z M155.14,320.65
		c-1.31-0.17-1.84-0.19-2.34-0.31c-40.23-9.7-77.13-2.23-110,22.71C21.88,358.94,7.9,379.85,5.69,406.65
		c-2.7,32.67,11.77,57.47,39.25,73.88c36.16,21.59,74.39,21.6,112.14,4.84c41.98-18.64,64.74-50.42,64.38-98.04
		c-0.65-86.97-0.15-173.95-0.27-260.93c-0.01-3.92,1.06-5.33,4.88-6.13C292,106.5,357.91,92.62,423.8,78.6
		c4.27-0.91,5.58-0.63,5.56,4.24c-0.17,57.46-0.11,114.92-0.11,172.37c0,2.44,0,4.88,0,7.28c-0.67,0.1-1.03,0.25-1.35,0.19
		c-0.86-0.16-1.69-0.45-2.55-0.63c-48.69-9.92-91.26,1.21-124.7,38.85c-34.98,39.37-26.73,93.74,17.57,121.64
		c21.9,13.79,46.22,18.25,71.7,15.9c28.05-2.59,53.08-12.79,74.08-31.94c21.34-19.45,31.43-43.77,31.41-72.56
		c-0.07-97.52-0.03-195.04-0.03-292.56c0-1.05,0.03-2.11-0.01-3.16c-0.92-23.25-18.9-38.16-40.96-33.52
		c-90.13,18.94-180.23,37.99-270.32,57.09c-19.52,4.14-28.94,16.13-28.94,36.16c0,72.39,0,144.79,0,217.18
		C155.14,316.86,155.14,318.6,155.14,320.65z"/>
	<path class="st1" d="M155.14,320.65c0-2.05,0-3.79,0-5.53c0-72.39,0-144.79,0-217.18c0-20.02,9.42-32.02,28.94-36.16
		c90.09-19.1,180.2-38.15,270.32-57.09c22.06-4.64,40.04,10.27,40.96,33.52c0.04,1.05,0.01,2.11,0.01,3.16
		c0,97.52-0.04,195.04,0.03,292.56c0.02,28.8-10.08,53.12-31.41,72.56c-21,19.14-46.03,29.35-74.08,31.94
		c-25.48,2.35-49.8-2.11-71.7-15.9c-44.3-27.9-52.55-82.27-17.57-121.64c33.44-37.64,76.01-48.77,124.7-38.85
		c0.86,0.17,1.69,0.46,2.55,0.63c0.32,0.06,0.68-0.09,1.35-0.19c0-2.39,0-4.83,0-7.28c0-57.46-0.06-114.92,0.11-172.37
		c0.01-4.87-1.29-5.15-5.56-4.24C357.91,92.62,292,106.5,226.07,120.27c-3.83,0.8-4.89,2.21-4.88,6.13
		c0.13,86.98-0.38,173.96,0.27,260.93c0.36,47.62-22.4,79.4-64.38,98.04c-37.75,16.76-75.98,16.75-112.14-4.84
		c-27.48-16.41-41.95-41.21-39.25-73.88c2.21-26.8,16.19-47.71,37.12-63.59c32.86-24.95,69.76-32.41,110-22.71
		C153.3,320.47,153.83,320.48,155.14,320.65z"/>
</g>
</svg>
