<?xml version="1.0" encoding="utf-8"?>
<!-- Generator: Adobe Illustrator 24.3.0, SVG Export Plug-In . SVG Version: 6.00 Build 0)  -->
<svg version="1.1" id="Layer_1" xmlns="http://www.w3.org/2000/svg" xmlns:xlink="http://www.w3.org/1999/xlink" x="0px" y="0px"
	 viewBox="0 0 500 500" style="enable-background:new 0 0 500 500;" xml:space="preserve">
<style type="text/css">
	.st0{fill:#FFFFFF;}
</style>
<path d="M499.72,499.77c-166.69,0-333.35,0-500,0c0-166.69,0-333.35,0-500c166.69,0,333.35,0,500,0
	C499.72,166.45,499.72,333.12,499.72,499.77z M161.46,129.42C161.46,129.43,161.46,129.43,161.46,129.42
	c-25.51,0.01-51.03,0.01-76.54,0.01c-1.67,0-3.33-0.01-4.99-0.07c-4.21-0.15-8.39,0.16-12.53,0.9
	c-13.33,2.38-24.98,8.19-34.89,17.46c-6.1,5.7-11.03,12.32-15.09,19.61c-4.91,8.8-8.39,18.18-10.9,27.92
	c-2.45,9.53-4,19.22-4.89,29.02c-0.65,7.2-1.03,14.4-1.09,21.63c-0.06,7.63,0.15,15.24,0.67,22.85c0.3,4.47,0.71,8.93,1.22,13.38
	c0.89,7.78,2.23,15.47,4.08,23.08c2.34,9.64,5.51,18.99,9.99,27.85c3.73,7.37,8.27,14.19,13.98,20.18
	c6.5,6.81,14.02,12.09,22.84,15.45c5.52,2.1,11.21,3.43,17.14,3.44c13.46,0.03,26.91,0.01,40.37,0c2.8,0,2.55,0.32,2.55-2.58
	c0-18.26,0.02-36.52-0.01-54.78c-0.01-6.51,0.53-12.95,1.86-19.32c1.68-8.1,4.37-15.84,8.5-23.02
	c7.09-12.34,17.25-21.08,30.58-26.06c7.56-2.82,15.4-4.17,23.42-4.58c2.46-0.12,4.93-0.1,7.39-0.1c38.3,0,76.61-0.02,114.91,0.02
	c6.42,0.01,12.76-0.61,19.03-1.98c7.06-1.53,13.84-3.86,20.23-7.29c7.26-3.9,13.54-8.98,18.57-15.56
	c6.75-8.84,10.23-18.96,11.57-29.91c0.58-4.72,0.67-9.47,0.67-14.22c0-34.58-0.01-69.16-0.01-103.74c0-0.94-0.01-1.87,0.05-2.81
	c0.54-8.23-1.33-15.93-5.06-23.21c-3.88-7.58-9.47-13.7-16.16-18.85c-6.06-4.67-12.73-8.27-19.77-11.21
	c-13.07-5.45-26.76-8.44-40.72-10.34c-4.22-0.58-8.46-1-12.71-1.36c-6.44-0.54-12.89-0.91-19.35-1.02
	c-12.73-0.23-25.44-0.05-38.13,1.1c-3.31,0.3-6.64,0.55-9.94,0.96c-6.34,0.78-12.65,1.76-18.91,3.09c-8.55,1.81-16.92,4.19-25,7.57
	c-6.61,2.76-12.85,6.17-18.5,10.62c-4.65,3.67-8.65,7.93-11.68,13.06c-2.44,4.13-4.06,8.54-4.72,13.32
	c-0.29,2.07-0.19,4.13-0.18,6.2c0.06,11.77,0.12,23.54,0.17,35.31c0.03,5.89,0.02,11.77,0.05,17.66c0.01,0.99-0.17,2,0.16,2.98
	c1.01,0.48,2.09,0.24,3.14,0.24c38.24,0.02,76.48,0.01,114.71,0.02c0.67,0,1.33,0,2,0.03c0.46,0.02,0.71,0.3,0.72,0.78
	c0.01,0.53,0.02,1.07,0.02,1.6c0,4.01,0.02,8.03,0,12.04c-0.02,3.01,0.39,2.62-2.68,2.63C218.89,129.43,190.18,129.42,161.46,129.42
	z M256.12,256.53c0,0,0,0.01,0,0.01c-19.52,0-39.03,0.02-58.55-0.02c-4.08-0.01-8.12,0.31-12.12,0.95c-5.46,0.88-10.8,2.23-16,4.15
	c-6.93,2.56-13.35,6.01-19.06,10.73c-6.92,5.72-12.12,12.72-15.59,21.02c-3.42,8.18-4.89,16.76-5.16,25.57
	c-0.05,1.67-0.03,3.34-0.03,5.02c0,34.64,0,69.29-0.01,103.93c0,2.07,0.1,4.15-0.24,6.21c-0.07,0.46-0.08,0.94-0.01,1.4
	c0.3,1.85,0.28,3.72,0.57,5.58c0.99,6.3,3.24,12.11,6.59,17.5c4.37,7.03,10.17,12.68,16.91,17.39c7.32,5.11,15.34,8.84,23.73,11.78
	c9.64,3.38,19.56,5.57,29.63,7.16c4.6,0.73,9.22,1.26,13.86,1.72c4.44,0.44,8.89,0.77,13.34,0.98c5.85,0.28,11.71,0.35,17.57,0.43
	c2.46,0.04,4.92-0.17,7.39-0.17c5.6,0.02,11.18-0.36,16.77-0.57c0.2-0.01,0.4-0.01,0.6-0.03c3.84-0.36,7.68-0.7,11.52-1.08
	c2.78-0.28,5.56-0.54,8.32-0.95c4.34-0.65,8.67-1.36,12.97-2.24c8.16-1.68,16.17-3.86,23.93-6.91c6.85-2.69,13.36-6.01,19.28-10.43
	c5.29-3.95,9.86-8.57,13.2-14.33c3.25-5.6,5.13-11.58,4.77-18.15c-0.04-0.8-0.03-1.6-0.03-2.41c-0.03-17.39-0.05-34.78-0.08-52.17
	c-0.01-3.28,0.41-2.83-2.9-2.83c-38.37-0.01-76.74,0-115.1,0c-0.67,0-1.33-0.01-2-0.03c-0.48-0.01-0.71-0.3-0.73-0.76
	c-0.02-0.53-0.02-1.07-0.02-1.6c0-4.15,0-8.29,0-12.44c0-2.55-0.13-2.35,2.42-2.35c54.89,0,109.78,0.01,164.66,0.01
	c0.53,0,1.07-0.05,1.6,0.02c2.46,0.36,4.9,0.16,7.37,0.01c3.8-0.22,7.53-0.84,11.22-1.72c8.05-1.93,15.49-5.26,22.31-9.96
	c7.45-5.12,13.62-11.53,18.75-18.98c6.66-9.67,11.18-20.33,14.41-31.57c1.62-5.65,2.89-11.39,3.88-17.18
	c0.49-2.9,0.94-5.8,1.27-8.72c0.38-3.32,0.73-6.64,0.98-9.97c0.26-3.53,0.56-7.06,0.62-10.6c0.21-11.1,0.28-22.19-0.68-33.27
	c-0.25-2.86-0.49-5.72-0.8-8.58c-0.6-5.51-1.41-10.99-2.43-16.44c-1.75-9.35-4.24-18.48-7.72-27.33
	c-3.66-9.33-8.42-18.03-14.85-25.75c-6.68-8.03-14.63-14.39-24.3-18.43c-6.07-2.54-12.35-4.12-18.99-4.11
	c-13.46,0.03-26.91,0.01-40.37,0.03c-2.87,0-2.56-0.26-2.56,2.59c-0.01,18.93-0.02,37.85,0.01,56.78c0.01,4.02-0.32,8.02-0.91,11.98
	c-0.98,6.63-2.62,13.09-5.12,19.32c-2.97,7.39-6.94,14.14-12.36,19.99c-5.37,5.81-11.66,10.33-18.9,13.51
	c-4.28,1.88-8.7,3.3-13.26,4.3c-3.45,0.76-6.94,1.3-10.45,1.55c-4.31,0.31-8.64,0.45-12.97,0.44
	C293.55,256.51,274.84,256.53,256.12,256.53z"/>
<path class="st0" d="M161,129.42c28.71,0,57.42,0,86.14-0.01c3.07,0,2.67,0.39,2.68-2.63c0.02-4.01,0.01-8.03,0-12.04
	c0-0.53-0.01-1.07-0.02-1.6c-0.01-0.47-0.26-0.75-0.72-0.78c-0.66-0.03-1.33-0.03-2-0.03c-38.24,0-76.48,0-114.71-0.02
	c-1.05,0-2.12,0.23-3.14-0.24c-0.33-0.98-0.15-1.99-0.16-2.98c-0.03-5.89-0.02-11.77-0.05-17.66c-0.05-11.77-0.11-23.54-0.17-35.31
	c-0.01-2.07-0.11-4.13,0.18-6.2c0.66-4.78,2.28-9.19,4.72-13.32c3.03-5.13,7.03-9.4,11.68-13.06c5.65-4.45,11.89-7.86,18.5-10.62
	c8.08-3.38,16.45-5.76,25-7.57c6.26-1.33,12.57-2.31,18.91-3.09c3.3-0.4,6.62-0.66,9.94-0.96c12.69-1.15,25.41-1.33,38.13-1.1
	c6.46,0.11,12.91,0.48,19.35,1.02c4.25,0.36,8.49,0.78,12.71,1.36c13.96,1.9,27.65,4.89,40.72,10.34
	c7.04,2.94,13.71,6.54,19.77,11.21c6.69,5.16,12.28,11.28,16.16,18.85c3.73,7.28,5.6,14.98,5.06,23.21
	c-0.06,0.93-0.05,1.87-0.05,2.81c0,34.58,0,69.16,0.01,103.74c0,4.75-0.09,9.5-0.67,14.22c-1.35,10.95-4.82,21.07-11.57,29.91
	c-5.03,6.58-11.31,11.66-18.57,15.56c-6.38,3.43-13.17,5.75-20.23,7.29c-6.27,1.36-12.61,1.98-19.03,1.98
	c-38.3-0.03-76.61-0.02-114.91-0.02c-2.46,0-4.93-0.02-7.39,0.1c-8.02,0.41-15.87,1.76-23.42,4.58
	c-13.33,4.97-23.48,13.71-30.58,26.06c-4.13,7.19-6.82,14.92-8.5,23.02c-1.32,6.37-1.87,12.82-1.86,19.32
	c0.03,18.26,0.02,36.52,0.01,54.78c0,2.91,0.25,2.58-2.55,2.58c-13.46,0.01-26.91,0.03-40.37,0c-5.93-0.01-11.62-1.34-17.14-3.44
	c-8.81-3.35-16.34-8.63-22.84-15.45c-5.72-5.99-10.25-12.81-13.98-20.18c-4.48-8.86-7.65-18.21-9.99-27.85
	c-1.85-7.6-3.18-15.3-4.08-23.08c-0.51-4.45-0.92-8.91-1.22-13.38c-0.51-7.61-0.73-15.23-0.67-22.85
	c0.06-7.22,0.44-14.43,1.09-21.63c0.89-9.8,2.43-19.49,4.89-29.02c2.51-9.75,5.99-19.12,10.9-27.92
	c4.06-7.28,8.99-13.91,15.09-19.61c9.91-9.27,21.56-15.08,34.89-17.46c4.14-0.74,8.32-1.05,12.53-0.9c1.66,0.06,3.33,0.07,4.99,0.07
	C109.97,129.44,135.49,129.43,161,129.42C161,129.43,161,129.43,161,129.42z M180.91,82.1c11.25,0.24,21.74-9.04,21.76-21.73
	c0.02-12.54-10.26-21.83-21.69-21.85c-11.15-0.03-21.74,8.87-21.76,21.78C159.21,73.35,169.93,82.3,180.91,82.1z"/>
<path class="st0" d="M256.12,256.53c18.72,0,37.44-0.03,56.15,0.02c4.33,0.01,8.66-0.12,12.97-0.44c3.51-0.25,7-0.79,10.45-1.55
	c4.56-1.01,8.98-2.42,13.26-4.3c7.24-3.19,13.52-7.7,18.9-13.51c5.42-5.86,9.39-12.61,12.36-19.99c2.5-6.23,4.14-12.69,5.12-19.32
	c0.59-3.96,0.91-7.96,0.91-11.98c-0.03-18.93-0.02-37.85-0.01-56.78c0-2.85-0.31-2.59,2.56-2.59c13.46-0.01,26.91,0,40.37-0.03
	c6.63-0.01,12.91,1.57,18.99,4.11c9.67,4.05,17.62,10.41,24.3,18.43c6.43,7.72,11.19,16.42,14.85,25.75
	c3.47,8.85,5.97,17.99,7.72,27.33c1.02,5.45,1.83,10.93,2.43,16.44c0.31,2.86,0.55,5.72,0.8,8.58c0.96,11.08,0.89,22.17,0.68,33.27
	c-0.07,3.54-0.36,7.07-0.62,10.6c-0.24,3.33-0.59,6.65-0.98,9.97c-0.34,2.92-0.78,5.82-1.27,8.72c-0.99,5.8-2.25,11.53-3.88,17.18
	c-3.23,11.25-7.75,21.9-14.41,31.57c-5.12,7.44-11.3,13.85-18.75,18.98c-6.82,4.69-14.27,8.02-22.31,9.96
	c-3.69,0.89-7.42,1.5-11.22,1.72c-2.46,0.15-4.91,0.35-7.37-0.01c-0.52-0.08-1.06-0.02-1.6-0.02
	c-54.89-0.01-109.78-0.01-164.66-0.01c-2.54,0-2.42-0.21-2.42,2.35c0,4.15,0,8.29,0,12.44c0,0.53,0,1.07,0.02,1.6
	c0.02,0.46,0.25,0.75,0.73,0.76c0.67,0.02,1.33,0.03,2,0.03c38.37,0,76.74-0.01,115.1,0c3.31,0,2.89-0.44,2.9,2.83
	c0.04,17.39,0.06,34.78,0.08,52.17c0,0.8-0.02,1.61,0.03,2.41c0.36,6.57-1.52,12.54-4.77,18.15c-3.34,5.76-7.91,10.39-13.2,14.33
	c-5.92,4.42-12.44,7.74-19.28,10.43c-7.76,3.04-15.77,5.23-23.93,6.91c-4.3,0.88-8.63,1.59-12.97,2.24
	c-2.76,0.41-5.54,0.67-8.32,0.95c-3.84,0.39-7.68,0.73-11.52,1.08c-0.2,0.02-0.4,0.02-0.6,0.03c-5.59,0.21-11.17,0.58-16.77,0.57
	c-2.46-0.01-4.92,0.2-7.39,0.17c-5.86-0.09-11.72-0.16-17.57-0.43c-4.45-0.21-8.9-0.54-13.34-0.98c-4.64-0.46-9.26-1-13.86-1.72
	c-10.06-1.59-19.99-3.78-29.63-7.16c-8.39-2.95-16.41-6.67-23.73-11.78c-6.74-4.71-12.54-10.36-16.91-17.39
	c-3.35-5.39-5.6-11.2-6.59-17.5c-0.29-1.86-0.28-3.73-0.57-5.58c-0.07-0.46-0.06-0.94,0.01-1.4c0.34-2.06,0.24-4.14,0.24-6.21
	c0.01-34.64,0.01-69.29,0.01-103.93c0-1.67-0.02-3.34,0.03-5.02c0.27-8.82,1.74-17.39,5.16-25.57c3.47-8.3,8.67-15.3,15.59-21.02
	c5.72-4.72,12.14-8.17,19.06-10.73c5.2-1.92,10.55-3.27,16-4.15c4.01-0.65,8.05-0.96,12.12-0.95c19.52,0.04,39.03,0.02,58.55,0.02
	C256.12,256.54,256.12,256.54,256.12,256.53z M339.87,437.81c0.16-11.43-9.03-21.84-21.64-21.81
	c-12.74,0.03-21.65,10.26-21.69,21.78c-0.04,11.93,9.52,21.84,21.65,21.81C330.62,459.57,339.99,449.45,339.87,437.81z"/>
<path d="M181.38,82.1c-10.99,0.2-21.7-8.75-21.69-21.81c0.02-12.9,10.61-21.8,21.76-21.78c11.43,0.03,21.71,9.31,21.69,21.85
	C203.12,73.05,192.63,82.34,181.38,82.1z"/>
<path d="M339.87,437.81c0.11,11.64-9.25,21.76-21.69,21.78c-12.12,0.03-21.69-9.89-21.65-21.81c0.04-11.52,8.95-21.75,21.69-21.78
	C330.85,415.97,340.03,426.38,339.87,437.81z"/>
</svg>
