<?xml version="1.0" encoding="utf-8"?>
<!-- Generator: Adobe Illustrator 24.3.0, SVG Export Plug-In . SVG Version: 6.00 Build 0)  -->
<svg version="1.1" id="Layer_1" xmlns="http://www.w3.org/2000/svg" xmlns:xlink="http://www.w3.org/1999/xlink" x="0px" y="0px"
	 viewBox="0 0 500 500" style="enable-background:new 0 0 500 500;" xml:space="preserve">
<style type="text/css">
	.st0{fill:#FFFFFF;}
	.st1{fill:#050505;}
</style>
<path d="M440.95,0.22c19.08,0,38.15,0.02,57.23-0.04C499.7,0.17,500,0.49,500,2c-0.04,165.16-0.04,330.32,0,495.48
	c0,1.52-0.3,1.82-1.82,1.82c-165.33-0.04-330.66-0.04-495.99,0c-1.52,0-1.82-0.3-1.82-1.82c0.05-35.86,0.04-71.73,0.04-107.59
	c1.11,2.12,0.43,4.41,0.56,6.61c0.6,9.78,8.31,17.46,18.05,17.8c4.66,0.16,9.32,0.4,13.98,0.4c78.25,0.08,156.51,0.12,234.76,0.17
	c0.17,0,0.34-0.02,0.51,0c1.45,0.24,1.84-0.38,1.81-1.8c-0.08-5-0.19-10.01,0.04-15c0.11-2.36-0.68-2.68-2.8-2.68
	c-53.32-0.1-106.65-0.26-159.97-0.42c-3.3-0.01-3.3-0.02-3.31-3.37c-0.16-101.91-0.3-203.81-0.53-305.72
	c-0.01-2.51,0.5-3.19,3.13-3.19c122.93,0.08,245.87,0.08,368.8,0c2.6,0,3.15,0.65,3.15,3.18c-0.08,67.06-0.06,134.12-0.06,201.19
	c0,0.51,0.06,1.03-0.01,1.52c-0.21,1.39,0.43,1.67,1.71,1.66c5.43-0.06,10.85-0.12,16.28,0.02c1.96,0.05,2.49-0.44,2.49-2.46
	c-0.22-90.29-0.38-180.58-0.55-270.88c0-0.75,0.08-1.63-0.26-2.22c-1.91-3.28-3.59-6.76-6.63-9.23c-3.86-3.13-7.88-5.49-13.3-5.08
	c-5.82,0.44-11.69,0.08-17.54,0.11c-6.52,0.03-13.04,0.1-19.56,0.15C441,0.55,440.94,0.4,440.95,0.22z M374.29,486.54
	c0,3.31,0.09,6.62-0.04,9.92c-0.06,1.67,0.24,2.32,2.14,2.31c12.21-0.1,24.41-0.08,36.62-0.01c1.69,0.01,2.1-0.48,2.12-2.11
	c0.07-6.44,0.36-12.88,0.39-19.32c0.01-1.76,0.6-2.49,2.22-3.03c6.09-2.05,12.04-4.5,17.61-7.73c1.33-0.77,2.09-0.66,3.17,0.44
	c4.68,4.79,9.5,9.44,14.2,14.22c1.01,1.02,1.55,1.34,2.75,0.12c8.63-8.75,17.33-17.44,26.06-26.08c1.1-1.08,1.17-1.63,0.02-2.75
	c-4.85-4.73-9.58-9.6-14.39-14.38c-0.89-0.88-1.18-1.53-0.47-2.78c3.24-5.75,5.88-11.8,7.93-18.08c0.52-1.59,1.36-1.96,2.94-1.98
	c6.53-0.07,13.05-0.33,19.57-0.42c1.39-0.02,1.85-0.33,1.85-1.81c-0.06-12.38-0.07-24.75,0.01-37.13c0.01-1.64-0.49-1.93-1.99-1.91
	c-6.78,0.08-13.56,0.04-20.34,0.03c-0.87,0-1.83,0.29-2.15-1.11c-1.51-6.55-4.6-12.52-7.21-18.65c-0.66-1.56-0.36-2.38,0.74-3.46
	c4.55-4.44,8.98-9.01,13.54-13.43c1.13-1.1,1.13-1.65,0.01-2.76c-8.86-8.76-17.67-17.57-26.43-26.43c-1.17-1.18-1.78-1.2-2.94,0
	c-4.6,4.74-9.35,9.35-13.99,14.07c-0.88,0.9-1.54,1.25-2.79,0.54c-5.46-3.1-11.33-5.29-17.29-7.19c-1.88-0.6-2.64-1.41-2.63-3.52
	c0.03-6.27-0.31-12.54-0.37-18.81c-0.02-1.62-0.41-2.12-2.1-2.11c-12.21,0.08-24.41,0.07-36.62,0c-1.65-0.01-2.12,0.42-2.13,2.09
	c-0.06,6.61-0.28,13.22-0.46,19.83c-0.02,0.86,0.26,1.73-1.09,2.16c-6.45,2.07-12.54,5.02-18.63,7.95c-1.23,0.59-1.81,0.1-2.57-0.67
	c-4.6-4.63-9.25-9.21-13.81-13.88c-1.03-1.05-1.57-1.27-2.74-0.08c-8.63,8.75-17.33,17.44-26.07,26.08
	c-1.1,1.09-1.17,1.63-0.02,2.74c4.63,4.48,9.09,9.13,13.73,13.6c1.19,1.15,1.24,1.99,0.57,3.43c-2.71,5.82-5.64,11.55-7.5,17.72
	c-0.42,1.41-1.31,1.43-2.48,1.45c-6.61,0.13-13.22,0.36-19.83,0.43c-1.57,0.02-1.96,0.45-1.95,2.01c0.07,12.29,0.07,24.58,0,36.88
	c-0.01,1.65,0.54,1.92,2.02,1.94c6.44,0.08,12.88,0.38,19.32,0.4c1.78,0.01,2.5,0.61,3.02,2.21c1.93,5.95,4.04,11.85,7.16,17.3
	c0.86,1.5,0.48,2.33-0.62,3.4c-4.72,4.62-9.35,9.35-14.07,13.98c-0.9,0.89-1.01,1.4-0.05,2.36c9.03,8.95,18.02,17.94,26.97,26.97
	c0.99,1,1.49,0.79,2.35-0.09c4.52-4.59,9.13-9.09,13.62-13.71c1.1-1.13,1.92-1.35,3.44-0.7c6.04,2.61,11.96,5.59,18.4,7.15
	c1.25,0.31,1.34,0.94,1.33,1.95C374.27,479.59,374.29,483.06,374.29,486.54z M291.51,208.38c-26.78,0-53.57,0.02-80.35-0.05
	c-2.01-0.01-2.59,0.5-2.53,2.52c0.15,4.74,0.18,9.5-0.01,14.24c-0.1,2.35,0.61,2.92,2.93,2.91c48.14-0.07,96.28-0.05,144.42-0.05
	c5.42,0,10.85-0.07,16.27,0.04c1.71,0.03,2.12-0.5,2.09-2.14c-0.11-4.91-0.16-9.84,0.02-14.74c0.08-2.22-0.48-2.79-2.75-2.78
	C344.91,208.42,318.21,208.38,291.51,208.38z M187.46,249.39c-20.08,0-40.16,0.02-60.24-0.04c-1.69,0-2.33,0.28-2.28,2.16
	c0.14,5.42,0.12,10.84,0.01,16.26c-0.03,1.67,0.44,2.08,2.09,2.08c40.16-0.05,80.32-0.05,120.48,0.01c1.87,0,2.2-0.59,2.16-2.29
	c-0.11-5.25-0.14-10.51,0.01-15.76c0.06-2.03-0.55-2.48-2.51-2.47C227.28,249.42,207.37,249.39,187.46,249.39z M322.7,249.39
	c-16.52,0-33.03,0.02-49.55-0.03c-1.54,0-2.19,0.23-2.15,2.01c0.13,5.5,0.11,11.01,0.01,16.52c-0.03,1.54,0.34,1.97,1.94,1.97
	c33.12-0.05,66.24-0.06,99.36,0c1.77,0,2.05-0.6,2.02-2.15c-0.08-5.34-0.13-10.67,0.02-16.01c0.05-1.9-0.44-2.37-2.35-2.36
	C355.56,249.42,339.13,249.39,322.7,249.39z M310.02,156.14c-1.27,0.51-2.19,0.92-3.14,1.26c-10.02,3.58-20.02,7.21-30.08,10.69
	c-1.8,0.62-2.51,1.46-2.48,3.38c0.06,4.06-0.04,8.14-0.22,12.2c-0.09,2.12,0.58,2.4,2.43,1.62c17.14-7.16,34.3-14.28,51.47-21.38
	c1.07-0.44,1.55-0.99,1.52-2.22c-0.08-3.9-0.09-7.8,0-11.7c0.03-1.24-0.46-1.77-1.52-2.21c-17.16-7.11-34.33-14.22-51.46-21.4
	c-2.16-0.9-2.53,0.02-2.48,1.82c0.11,4.15,0.29,8.3,0.28,12.45c-0.01,1.67,0.7,2.28,2.18,2.79c9.34,3.23,18.65,6.55,27.95,9.88
	C306.29,153.98,308.18,154.49,310.02,156.14z M148.76,155.75c1.4-0.59,2.32-1.02,3.26-1.36c10.16-3.68,20.3-7.38,30.49-10.99
	c1.43-0.51,2.01-1.12,1.93-2.68c-0.21-4.31-0.28-8.63-0.32-12.95c-0.02-1.75-0.43-2.2-2.2-1.44c-16.85,7.18-33.73,14.29-50.63,21.37
	c-1.23,0.52-1.56,1.2-1.54,2.46c0.08,3.81,0.08,7.62,0,11.43c-0.03,1.3,0.42,1.94,1.61,2.43c16.82,7.02,33.64,14.08,50.43,21.17
	c1.65,0.7,2.22,0.4,2.36-1.4c0.32-4.23,0.13-8.47,0.32-12.7c0.08-1.8-0.6-2.48-2.21-3.02c-7.36-2.48-14.69-5.04-22-7.68
	C156.55,159.06,152.8,157.8,148.76,155.75z M156.06,227.95c9.65,0,19.3-0.04,28.95,0.04c1.74,0.01,2.33-0.42,2.28-2.23
	c-0.12-5.16-0.08-10.33-0.02-15.49c0.02-1.36-0.26-1.92-1.8-1.92c-19.56,0.05-39.11,0.05-58.67,0c-1.42,0-1.89,0.37-1.86,1.83
	c0.08,5.25,0.12,10.5-0.01,15.74c-0.04,1.78,0.6,2.07,2.17,2.06C136.76,227.92,146.41,227.95,156.06,227.95z M230.17,146.14
	c-5.85,0-11.69,0.04-17.54-0.03c-1.46-0.02-2.09,0.23-2.06,1.91c0.11,5.25,0.1,10.51,0.01,15.76c-0.03,1.49,0.47,1.82,1.87,1.81
	c11.78-0.05,23.56-0.07,35.33,0.01c1.69,0.01,1.91-0.59,1.88-2.04c-0.08-5.17-0.1-10.34,0.01-15.51c0.03-1.59-0.42-1.99-1.98-1.96
	C241.86,146.2,236.01,146.14,230.17,146.14z"/>
<path class="st0" d="M441.14,0.67c6.52-0.05,13.04-0.12,19.56-0.15c5.85-0.03,11.73,0.34,17.54-0.11c5.42-0.41,9.44,1.95,13.3,5.08
	c3.04,2.46,4.72,5.94,6.63,9.23c0.35,0.59,0.26,1.48,0.26,2.22c0.17,90.29,0.33,180.58,0.55,270.88c0,2.02-0.53,2.51-2.49,2.46
	c-5.42-0.14-10.85-0.08-16.28-0.02c-1.28,0.01-1.92-0.27-1.71-1.66c0.08-0.5,0.01-1.02,0.01-1.52c0-67.06-0.02-134.12,0.06-201.19
	c0-2.53-0.54-3.19-3.15-3.18c-122.93,0.07-245.87,0.07-368.8,0c-2.63,0-3.14,0.68-3.13,3.19c0.22,101.91,0.37,203.81,0.53,305.72
	c0.01,3.35,0.01,3.36,3.31,3.37c53.32,0.16,106.65,0.33,159.97,0.42c2.11,0,2.9,0.32,2.8,2.68c-0.22,4.99-0.12,10-0.04,15
	c0.02,1.42-0.36,2.04-1.81,1.8c-0.16-0.03-0.34,0-0.51,0c-78.25-0.05-156.51-0.1-234.76-0.17c-4.66,0-9.32-0.24-13.98-0.4
	c-9.73-0.34-17.45-8.02-18.05-17.8c-0.14-2.2,0.55-4.49-0.56-6.61c0-1.7,0-3.39,0-5.09c0.78-0.69,0.31-1.58,0.34-2.37
	c0.07-2.36,0.05-4.72,0.06-7.07c0.04-0.34,0.11-0.67,0.11-1.01c0-20.99,0-41.98,0-62.97c0-0.66,0.13-1.38-0.51-1.87
	c0-14.58,0-29.17,0-43.75c0.92-0.93,0.49-2.1,0.49-3.15c0.03-58.31,0.03-116.62,0.04-174.94c0-1.1-0.06-2.2-0.1-3.3
	c-0.06-0.92-0.16-1.85-0.16-2.77c0.03-20.5,0.26-40.99,0.01-61.49C0.62,14.79,2.71,10.81,5.95,7.2c3.75-4.18,8.37-6.7,14.27-6.48
	c4.65,0.17,9.31-0.04,13.97-0.05c11.94-0.01,23.87,0.01,35.81,0.01c0.76,0.02,1.52,0.05,2.29,0.05c122.1,0,244.2,0,366.31,0
	C439.45,0.74,440.29,0.69,441.14,0.67z M20.75,239c0,51.28,0.01,102.57-0.05,153.85c0,2.06,0.4,2.68,2.58,2.65
	c19.32-0.25,38.65-0.4,57.97-0.48c1.94-0.01,2.34-0.54,2.34-2.4c0.1-102.48,0.26-204.96,0.47-307.44c0-2.1-0.66-2.47-2.57-2.46
	C62.24,82.78,43,82.8,23.76,82.7c-2.36-0.01-3.08,0.42-3.08,2.96C20.77,136.78,20.75,187.89,20.75,239z M394.94,62.36
	c11.55,0.06,20.81-9.08,20.95-20.67c0.14-11.43-9.11-20.82-20.68-20.99c-11.36-0.17-20.84,9.09-20.91,20.41
	C374.23,52.85,383.41,62.3,394.94,62.36z M332.59,62.35c11.48,0.09,20.77-8.97,20.89-20.39c0.13-11.79-8.87-21.08-20.6-21.26
	c-11.5-0.18-20.89,9.06-20.96,20.63C311.86,52.78,321.17,62.25,332.59,62.35z M478.14,41.62c0.03-11.62-9.05-20.81-20.67-20.92
	c-11.5-0.11-20.93,9.26-20.86,20.73c0.07,11.58,9.28,20.88,20.72,20.93C468.92,62.4,478.11,53.23,478.14,41.62z"/>
<path class="st1" d="M441.14,0.67c-0.85,0.03-1.69,0.07-2.54,0.07c-122.1,0-244.2,0-366.31,0c-0.76,0-1.52-0.03-2.29-0.05
	c0.03-0.16,0.06-0.31,0.1-0.47c123.62,0,247.23,0,370.85,0C440.94,0.4,441,0.55,441.14,0.67z"/>
<path d="M70.1,0.22c-0.03,0.16-0.06,0.31-0.1,0.47C58.07,0.68,46.13,0.67,34.2,0.68c-4.66,0-9.32,0.22-13.97,0.05
	C14.32,0.5,9.7,3.03,5.95,7.2c-3.24,3.61-5.33,7.59-5.27,12.92c0.25,20.49,0.03,40.99-0.01,61.49c0,0.92,0.1,1.85,0.16,2.77
	c-0.14,0.1-0.29,0.19-0.43,0.28c0-27.51,0.01-55.02-0.04-82.53c0-1.56,0.31-1.96,1.93-1.96C24.9,0.24,47.5,0.22,70.1,0.22z"/>
<path class="st0" d="M0.41,84.67c0.14-0.09,0.29-0.19,0.43-0.28c0.03,1.1,0.1,2.2,0.1,3.3c0,58.31-0.01,116.62-0.04,174.94
	c0,1.05,0.43,2.22-0.49,3.15C0.41,205.4,0.41,145.03,0.41,84.67z"/>
<path class="st0" d="M0.41,309.51c0.64,0.5,0.51,1.21,0.51,1.87c0,20.99,0.01,41.98,0,62.97c0,0.34-0.07,0.67-0.11,1.01
	c-0.13-0.07-0.26-0.15-0.4-0.22C0.41,353.26,0.41,331.39,0.41,309.51z"/>
<path class="st0" d="M0.41,375.14c0.13,0.07,0.26,0.15,0.4,0.22c-0.01,2.36,0.02,4.72-0.06,7.07c-0.02,0.79,0.44,1.68-0.34,2.37
	C0.41,381.58,0.41,378.36,0.41,375.14z"/>
<path class="st0" d="M374.29,486.54c0-3.48-0.02-6.95,0.01-10.43c0.01-1.01-0.07-1.64-1.33-1.95c-6.44-1.57-12.35-4.55-18.4-7.15
	c-1.52-0.66-2.34-0.44-3.44,0.7c-4.49,4.62-9.11,9.11-13.62,13.71c-0.87,0.88-1.36,1.09-2.35,0.09
	c-8.95-9.03-17.94-18.02-26.97-26.97c-0.97-0.96-0.86-1.48,0.05-2.36c4.72-4.63,9.34-9.35,14.07-13.98c1.1-1.08,1.48-1.91,0.62-3.4
	c-3.12-5.45-5.23-11.35-7.16-17.3c-0.52-1.6-1.24-2.21-3.02-2.21c-6.44-0.02-12.88-0.32-19.32-0.4c-1.48-0.02-2.03-0.3-2.02-1.94
	c0.08-12.29,0.07-24.58,0-36.88c-0.01-1.56,0.38-2,1.95-2.01c6.61-0.07,13.22-0.31,19.83-0.43c1.16-0.02,2.05-0.04,2.48-1.45
	c1.86-6.17,4.79-11.91,7.5-17.72c0.67-1.45,0.62-2.29-0.57-3.43c-4.63-4.48-9.1-9.12-13.73-13.6c-1.15-1.11-1.08-1.65,0.02-2.74
	c8.74-8.64,17.44-17.33,26.07-26.08c1.17-1.18,1.71-0.97,2.74,0.08c4.56,4.67,9.22,9.25,13.81,13.88c0.76,0.76,1.34,1.26,2.57,0.67
	c6.09-2.93,12.18-5.88,18.63-7.95c1.35-0.43,1.06-1.31,1.09-2.16c0.18-6.61,0.4-13.22,0.46-19.83c0.02-1.67,0.48-2.1,2.13-2.09
	c12.21,0.07,24.41,0.07,36.62,0c1.69-0.01,2.09,0.49,2.1,2.11c0.06,6.27,0.4,12.54,0.37,18.81c-0.01,2.12,0.74,2.92,2.63,3.52
	c5.96,1.9,11.83,4.08,17.29,7.19c1.26,0.71,1.91,0.36,2.79-0.54c4.64-4.71,9.38-9.32,13.99-14.07c1.16-1.2,1.78-1.17,2.94,0
	c8.76,8.86,17.57,17.67,26.43,26.43c1.12,1.11,1.13,1.67-0.01,2.76c-4.57,4.42-8.99,8.99-13.54,13.43c-1.1,1.07-1.4,1.9-0.74,3.46
	c2.62,6.13,5.7,12.09,7.21,18.65c0.32,1.4,1.28,1.11,2.15,1.11c6.78,0.01,13.56,0.05,20.34-0.03c1.5-0.02,2.01,0.28,1.99,1.91
	c-0.08,12.38-0.07,24.75-0.01,37.13c0.01,1.48-0.46,1.79-1.85,1.81c-6.53,0.09-13.05,0.36-19.57,0.42
	c-1.58,0.02-2.42,0.39-2.94,1.98c-2.05,6.28-4.68,12.32-7.93,18.08c-0.7,1.25-0.42,1.89,0.47,2.78c4.81,4.77,9.54,9.64,14.39,14.38
	c1.15,1.12,1.07,1.67-0.02,2.75c-8.74,8.65-17.44,17.33-26.06,26.08c-1.2,1.22-1.75,0.9-2.75-0.12c-4.7-4.77-9.52-9.43-14.2-14.22
	c-1.08-1.11-1.85-1.21-3.17-0.44c-5.58,3.23-11.52,5.67-17.61,7.73c-1.62,0.54-2.21,1.27-2.22,3.03
	c-0.03,6.44-0.33,12.88-0.39,19.32c-0.02,1.63-0.43,2.12-2.12,2.11c-12.21-0.08-24.41-0.09-36.62,0.01c-1.9,0.01-2.2-0.64-2.14-2.31
	C374.38,493.15,374.29,489.84,374.29,486.54z M394.35,342.92c-23.44-1.14-51.32,20.02-51.29,51.78
	c0.03,28.37,23.42,52.11,51.46,52.14c29.33,0.02,52.38-23.08,52.64-52.22C447.37,370.08,426.79,342.36,394.35,342.92z"/>
<path class="st0" d="M291.51,208.38c26.7,0,53.4,0.03,80.09-0.06c2.27-0.01,2.83,0.56,2.75,2.78c-0.18,4.91-0.13,9.83-0.02,14.74
	c0.04,1.64-0.38,2.18-2.09,2.14c-5.42-0.11-10.85-0.04-16.27-0.04c-48.14,0-96.28-0.02-144.42,0.05c-2.32,0-3.02-0.56-2.93-2.91
	c0.19-4.74,0.16-9.49,0.01-14.24c-0.06-2.02,0.52-2.53,2.53-2.52C237.95,208.41,264.73,208.38,291.51,208.38z"/>
<path class="st0" d="M187.46,249.39c19.91,0,39.82,0.03,59.73-0.05c1.96-0.01,2.57,0.44,2.51,2.47c-0.16,5.25-0.12,10.51-0.01,15.76
	c0.03,1.7-0.3,2.29-2.16,2.29c-40.16-0.06-80.32-0.06-120.48-0.01c-1.66,0-2.13-0.41-2.09-2.08c0.11-5.42,0.13-10.85-0.01-16.26
	c-0.05-1.87,0.59-2.16,2.28-2.16C147.3,249.41,167.38,249.39,187.46,249.39z"/>
<path class="st0" d="M322.7,249.39c16.43,0,32.87,0.04,49.3-0.05c1.91-0.01,2.4,0.46,2.35,2.36c-0.14,5.33-0.1,10.67-0.02,16.01
	c0.02,1.56-0.25,2.16-2.02,2.15c-33.12-0.06-66.24-0.06-99.36,0c-1.6,0-1.97-0.43-1.94-1.97c0.1-5.5,0.12-11.01-0.01-16.52
	c-0.04-1.78,0.61-2.02,2.15-2.01C289.66,249.4,306.18,249.39,322.7,249.39z"/>
<path class="st0" d="M310.02,156.14c-1.84-1.66-3.73-2.16-5.53-2.8c-9.3-3.33-18.61-6.65-27.95-9.88c-1.49-0.51-2.19-1.12-2.18-2.79
	c0.01-4.15-0.17-8.3-0.28-12.45c-0.05-1.8,0.33-2.73,2.48-1.82c17.13,7.18,34.3,14.29,51.46,21.4c1.06,0.44,1.54,0.97,1.52,2.21
	c-0.09,3.9-0.09,7.8,0,11.7c0.03,1.23-0.45,1.78-1.52,2.22c-17.17,7.1-34.33,14.22-51.47,21.38c-1.86,0.78-2.52,0.5-2.43-1.62
	c0.18-4.06,0.28-8.13,0.22-12.2c-0.03-1.92,0.68-2.76,2.48-3.38c10.05-3.48,20.06-7.1,30.08-10.69
	C307.83,157.07,308.75,156.66,310.02,156.14z"/>
<path class="st0" d="M148.76,155.75c4.04,2.05,7.78,3.31,11.49,4.65c7.3,2.64,14.64,5.2,22,7.68c1.6,0.54,2.29,1.22,2.21,3.02
	c-0.18,4.23,0.01,8.47-0.32,12.7c-0.14,1.81-0.7,2.1-2.36,1.4c-16.79-7.1-33.6-14.15-50.43-21.17c-1.19-0.5-1.64-1.13-1.61-2.43
	c0.09-3.81,0.08-7.62,0-11.43c-0.03-1.26,0.3-1.94,1.54-2.46c16.89-7.08,33.77-14.19,50.63-21.37c1.78-0.76,2.19-0.31,2.2,1.44
	c0.04,4.32,0.12,8.64,0.32,12.95c0.07,1.57-0.5,2.18-1.93,2.68c-10.18,3.6-20.33,7.3-30.49,10.99
	C151.08,154.73,150.16,155.16,148.76,155.75z"/>
<path class="st0" d="M156.06,227.95c-9.65,0-19.3-0.03-28.95,0.03c-1.57,0.01-2.22-0.27-2.17-2.06c0.13-5.25,0.1-10.5,0.01-15.74
	c-0.02-1.46,0.45-1.83,1.86-1.83c19.56,0.04,39.11,0.05,58.67,0c1.53,0,1.81,0.56,1.8,1.92c-0.06,5.16-0.1,10.33,0.02,15.49
	c0.04,1.81-0.54,2.25-2.28,2.23C175.36,227.91,165.71,227.95,156.06,227.95z"/>
<path class="st0" d="M230.17,146.14c5.85,0,11.69,0.05,17.54-0.04c1.55-0.02,2.01,0.37,1.98,1.96c-0.11,5.17-0.09,10.34-0.01,15.51
	c0.02,1.45-0.19,2.05-1.88,2.04c-11.78-0.08-23.56-0.07-35.33-0.01c-1.4,0.01-1.9-0.32-1.87-1.81c0.09-5.25,0.11-10.51-0.01-15.76
	c-0.04-1.68,0.59-1.93,2.06-1.91C218.47,146.19,224.32,146.14,230.17,146.14z"/>
<path d="M20.75,239c0-51.11,0.02-102.23-0.07-153.34c0-2.54,0.71-2.98,3.08-2.96c19.24,0.1,38.48,0.08,57.72,0.02
	c1.91-0.01,2.57,0.36,2.57,2.46c-0.21,102.48-0.36,204.96-0.47,307.44c0,1.86-0.4,2.39-2.34,2.4c-19.32,0.07-38.65,0.22-57.97,0.48
	c-2.18,0.03-2.58-0.59-2.58-2.65C20.76,341.57,20.75,290.29,20.75,239z M52.3,145.16c2.88,0,5.76-0.04,8.64,0.02
	c1.12,0.02,1.67-0.18,1.66-1.49c-0.06-5.84-0.05-11.69-0.01-17.53c0.01-1.07-0.27-1.48-1.41-1.47c-5.84,0.05-11.69,0.06-17.53,0
	c-1.27-0.01-1.54,0.44-1.53,1.61c0.05,5.76,0.07,11.52-0.01,17.27c-0.02,1.47,0.61,1.63,1.81,1.6
	C46.71,145.11,49.51,145.16,52.3,145.16z M52.55,166.56c-2.96,0-5.93,0.06-8.89-0.03c-1.25-0.04-1.55,0.39-1.54,1.59
	c0.06,5.76,0.06,11.52,0,17.28c-0.01,1.18,0.28,1.61,1.53,1.6c5.76-0.06,11.52-0.07,17.28,0.01c1.38,0.02,1.68-0.43,1.67-1.73
	c-0.07-5.67-0.07-11.35,0-17.02c0.02-1.29-0.28-1.77-1.66-1.72C58.15,166.64,55.35,166.56,52.55,166.56z M62.57,259.41
	c0-2.79-0.04-5.59,0.02-8.38c0.02-1.09-0.11-1.68-1.47-1.67c-5.84,0.07-11.69,0.05-17.53,0.01c-1.06-0.01-1.48,0.25-1.47,1.4
	c0.05,5.84,0.06,11.69,0,17.53c-0.01,1.27,0.43,1.54,1.61,1.53c5.76-0.05,11.52-0.08,17.28,0.01c1.48,0.02,1.62-0.62,1.59-1.81
	C62.53,265.17,62.57,262.29,62.57,259.41z M62.57,301.41c0-2.88-0.05-5.76,0.02-8.64c0.03-1.19-0.27-1.61-1.54-1.59
	c-5.84,0.06-11.69,0.06-17.53,0c-1.15-0.01-1.41,0.4-1.4,1.47c0.04,5.84,0.04,11.69,0,17.53c-0.01,1.08,0.27,1.47,1.41,1.46
	c5.84-0.05,11.69-0.06,17.53,0.01c1.27,0.01,1.56-0.43,1.53-1.6C62.52,307.17,62.57,304.29,62.57,301.41z M52.4,227.95
	c2.79,0,5.58-0.04,8.37,0.02c1.2,0.03,1.86-0.14,1.84-1.61c-0.08-5.5-0.06-10.99-0.01-16.49c0.01-1.3-0.54-1.52-1.67-1.51
	c-5.75,0.04-11.5,0.05-17.25-0.01c-1.24-0.01-1.58,0.41-1.56,1.6c0.05,5.41,0.08,10.83-0.01,16.24c-0.03,1.54,0.57,1.82,1.92,1.78
	C46.81,227.89,49.61,227.95,52.4,227.95z M52.49,333.05c-2.88,0-5.75,0.06-8.63-0.03c-1.29-0.04-1.77,0.3-1.76,1.68
	c0.07,5.41,0.07,10.82,0,16.24c-0.02,1.34,0.41,1.72,1.73,1.71c5.67-0.06,11.33-0.06,17,0c1.28,0.01,1.79-0.3,1.77-1.68
	c-0.07-5.41-0.07-10.82,0-16.24c0.02-1.34-0.42-1.75-1.74-1.71C58.08,333.12,55.28,333.05,52.49,333.05z"/>
<path d="M394.94,62.36c-11.53-0.06-20.71-9.51-20.64-21.25c0.07-11.32,9.55-20.57,20.91-20.41c11.57,0.17,20.81,9.56,20.68,20.99
	C415.75,53.28,406.49,62.42,394.94,62.36z"/>
<path d="M332.59,62.35c-11.42-0.09-20.73-9.56-20.66-21.02c0.07-11.57,9.45-20.81,20.96-20.63c11.73,0.18,20.73,9.47,20.6,21.26
	C353.36,53.37,344.07,62.44,332.59,62.35z"/>
<path d="M478.14,41.62c-0.03,11.61-9.23,20.77-20.8,20.73c-11.45-0.04-20.66-9.34-20.72-20.93c-0.07-11.47,9.37-20.84,20.86-20.73
	C469.09,20.81,478.17,30,478.14,41.62z"/>
<path d="M394.35,342.92c32.44-0.56,53.01,27.16,52.8,51.7c-0.25,29.14-23.31,52.24-52.64,52.22c-28.04-0.02-51.43-23.76-51.46-52.14
	C343.04,362.94,370.91,341.78,394.35,342.92z"/>
<path class="st0" d="M52.3,145.16c-2.79,0-5.59-0.04-8.38,0.02c-1.2,0.03-1.83-0.13-1.81-1.6c0.08-5.76,0.06-11.52,0.01-17.27
	c-0.01-1.17,0.26-1.63,1.53-1.61c5.84,0.06,11.69,0.05,17.53,0c1.15-0.01,1.42,0.39,1.41,1.47c-0.04,5.84-0.06,11.69,0.01,17.53
	c0.01,1.32-0.54,1.52-1.66,1.49C58.06,145.12,55.18,145.16,52.3,145.16z"/>
<path class="st0" d="M52.55,166.56c2.8,0,5.59,0.08,8.38-0.03c1.38-0.05,1.68,0.43,1.66,1.72c-0.07,5.67-0.07,11.35,0,17.02
	c0.01,1.29-0.29,1.74-1.67,1.73c-5.76-0.08-11.52-0.07-17.28-0.01c-1.26,0.01-1.55-0.41-1.53-1.6c0.05-5.76,0.06-11.52,0-17.28
	c-0.01-1.19,0.29-1.62,1.54-1.59C46.62,166.62,49.59,166.56,52.55,166.56z"/>
<path class="st0" d="M62.57,259.41c0,2.88-0.04,5.76,0.02,8.64c0.03,1.19-0.11,1.83-1.59,1.81c-5.76-0.09-11.52-0.06-17.28-0.01
	c-1.17,0.01-1.62-0.27-1.61-1.53c0.06-5.84,0.06-11.69,0-17.53c-0.01-1.15,0.41-1.41,1.47-1.4c5.84,0.04,11.69,0.06,17.53-0.01
	c1.36-0.02,1.49,0.57,1.47,1.67C62.54,253.82,62.57,256.61,62.57,259.41z"/>
<path class="st0" d="M62.57,301.41c0,2.88-0.05,5.76,0.02,8.64c0.03,1.17-0.26,1.62-1.53,1.6c-5.84-0.06-11.69-0.06-17.53-0.01
	c-1.14,0.01-1.42-0.38-1.41-1.46c0.05-5.84,0.04-11.69,0-17.53c-0.01-1.07,0.25-1.48,1.4-1.47c5.84,0.05,11.69,0.06,17.53,0
	c1.26-0.01,1.57,0.41,1.54,1.59C62.52,295.65,62.57,298.53,62.57,301.41z"/>
<path class="st0" d="M52.4,227.95c-2.79,0-5.58-0.06-8.37,0.03c-1.35,0.04-1.95-0.24-1.92-1.78c0.09-5.41,0.07-10.82,0.01-16.24
	c-0.01-1.19,0.32-1.62,1.56-1.6c5.75,0.06,11.5,0.05,17.25,0.01c1.13-0.01,1.68,0.21,1.67,1.51c-0.06,5.5-0.07,10.99,0.01,16.49
	c0.02,1.47-0.65,1.63-1.84,1.61C57.98,227.91,55.19,227.95,52.4,227.95z"/>
<path class="st0" d="M52.49,333.05c2.79,0,5.58,0.06,8.37-0.03c1.32-0.04,1.76,0.37,1.74,1.71c-0.06,5.41-0.07,10.82,0,16.24
	c0.02,1.38-0.48,1.69-1.77,1.68c-5.67-0.06-11.33-0.06-17,0c-1.32,0.02-1.75-0.36-1.73-1.71c0.07-5.41,0.07-10.83,0-16.24
	c-0.02-1.38,0.47-1.72,1.76-1.68C46.74,333.11,49.62,333.05,52.49,333.05z"/>
</svg>
